<svg width="58" height="56" viewBox="0 0 58 56" fill="none" xmlns="http://www.w3.org/2000/svg">
<path d="M1.29883 52.6443V42.2015C1.33496 42.1443 1.38379 42.0921 1.40723 42.0291C1.89697 40.6873 2.82324 40.0301 4.24121 40.0223C4.52686 40.0203 4.81396 40.0223 5.00586 40.0223V37.3875C5.00586 35.1234 5.02686 32.8592 4.99609 30.5965C4.98193 29.4944 5.09082 28.4651 5.98291 27.7073C5.93604 27.6463 5.92676 27.6282 5.91309 27.6185C5.82422 27.5574 5.73291 27.4974 5.64209 27.4393C3.52979 26.0892 2.18018 24.1902 1.56006 21.7674C1.45801 21.3675 1.38477 20.9593 1.29883 20.5545V18.5965C1.33008 18.5145 1.37891 18.4354 1.39111 18.3514C1.729 15.9774 2.82812 14.0262 4.65283 12.4803C4.74219 12.4051 4.87207 12.3763 4.98291 12.3265C4.46191 12.1751 4.06006 12.1985 3.67285 12.1341C2.38818 11.9222 1.66992 11.0862 1.29883 9.89435V3.25812C1.86279 1.56036 3.07617 0.941224 4.81006 1.02033C6.40186 1.09113 8 1.03546 9.59521 1.03546C23.1182 1.03546 36.6421 1.03449 50.165 1.03644C52.1841 1.03644 53.2852 2.14728 53.2871 4.16925C53.2881 5.67413 53.2451 7.18048 53.2979 8.68243C53.356 10.2791 52.853 11.4891 51.2759 12.0682C51.6089 13.9153 51.3281 14.5555 49.7661 15.6502C49.646 15.7352 49.5859 15.9793 49.585 16.1502C49.5732 18.4525 49.5811 20.7542 49.5718 23.0574C49.5708 23.3401 49.6348 23.5003 49.917 23.6395C50.791 24.0735 51.29 24.8104 51.3999 25.7752C51.4438 26.1605 51.374 26.5584 51.3521 27.0193C51.5532 27.0193 51.7471 27.0184 51.9409 27.0203C52.7739 27.0272 53.6108 26.9905 54.4409 27.0521C55.9141 27.1634 56.981 28.3192 56.9878 29.8001C57.0029 32.9002 57.0049 36.0003 56.9878 39.1004C56.979 40.6551 55.7759 41.8372 54.2222 41.8734C53.8711 41.8812 53.519 41.8743 53.1611 41.8743C53.209 42.2391 53.2798 42.5252 53.2808 42.8123C53.2881 45.9124 53.2979 49.0115 53.2788 52.1111C53.271 53.3851 52.4429 54.4402 51.2422 54.7542C50.8799 54.8494 50.4888 54.8621 50.1108 54.8631C34.9019 54.8685 19.6929 54.8675 4.48389 54.8665C4.26709 54.8665 4.04785 54.8655 3.83301 54.8431C2.72217 54.7322 1.95898 54.1434 1.50781 53.1321C1.43604 52.9705 1.36816 52.8074 1.29883 52.6443ZM47.6938 15.8802H47.0469C35.0142 15.8802 22.9819 15.8802 10.9492 15.8812C10.7681 15.8812 10.5859 15.8782 10.4058 15.8875C8.19385 15.9954 6.55713 18.0184 6.92578 20.1854C7.25586 22.1204 8.74902 23.2991 10.8872 23.3001C22.9561 23.3011 35.0249 23.3011 47.0942 23.2991C47.2861 23.2991 47.478 23.2835 47.6938 23.2733V15.8802ZM12.4541 52.9734H42.106V41.9124H12.4541V52.9734ZM14.3428 2.92218V10.2752H40.229V2.92218H14.3428ZM29.189 27.0193C35.4971 27.0193 41.8062 27.0203 48.1138 27.0184C48.3491 27.0184 48.5889 27.0242 48.8179 26.9832C49.2959 26.8983 49.5469 26.5682 49.5581 26.1082C49.5679 25.6722 49.3442 25.3323 48.8989 25.2254C48.6392 25.1634 48.3599 25.1614 48.0898 25.1614C35.7822 25.1585 23.4731 25.1595 11.165 25.1585C10.875 25.1585 10.585 25.1561 10.2949 25.1424C6.38721 24.9564 3.86816 20.8665 5.51709 17.3182C6.55176 15.0931 8.37598 14.0291 10.8188 14.0281C23.3271 14.0262 35.835 14.0272 48.3428 14.0272C49.1172 14.0272 49.5649 13.6863 49.5698 13.1043C49.5742 12.5223 49.124 12.1751 48.353 12.1751C35.7729 12.1741 23.1919 12.1653 10.6118 12.1785C5.43213 12.1844 1.86523 17.2391 3.58594 22.0892C4.6582 25.1092 7.43311 27.0135 10.8081 27.0174C16.9351 27.0252 23.062 27.0193 29.189 27.0193ZM46.7568 28.9295H15.2588V39.9813H46.7568V28.9295ZM48.6538 40.0223C50.439 40.0223 52.1748 40.0233 53.9102 40.0213C54.832 40.0203 55.1401 39.7073 55.1401 38.7733C55.1421 35.8934 55.1421 33.0125 55.1401 30.1321C55.1401 29.1893 54.8472 28.8875 53.917 28.8841C52.3408 28.8792 50.7651 28.8812 49.189 28.8841C49.0161 28.8851 48.8442 28.9095 48.6538 28.9232V40.0223ZM13.3481 28.8934C11.4482 28.8934 9.60205 28.8802 7.75586 28.9022C7.21924 28.9085 6.90479 29.2654 6.86719 29.8143C6.84521 30.1385 6.85986 30.4661 6.85986 30.7923C6.85986 33.4734 6.85791 36.1541 6.86084 38.8362C6.86182 39.5775 7.16309 40.0032 7.77686 40.0091C9.60596 40.0281 11.4351 40.0081 13.2651 40.0003C13.292 40.0003 13.3188 39.9573 13.3481 39.9324V28.8934ZM8.68311 10.3182V2.91534C7.08203 2.91534 5.51221 2.89728 3.94287 2.92609C3.46191 2.93536 3.16113 3.32941 3.1582 3.86749C3.146 5.69513 3.14404 7.52423 3.15918 9.35236C3.16406 9.93536 3.53418 10.3055 4.12012 10.3123C5.62012 10.3304 7.12109 10.3182 8.68311 10.3182ZM6.81982 52.9925V41.8753C6.60205 41.8753 6.42285 41.8753 6.24414 41.8753C5.51904 41.8763 4.79395 41.8592 4.06982 41.8831C3.52393 41.9012 3.18115 42.2723 3.15723 42.8343C3.13916 43.2503 3.15186 43.6673 3.15186 44.0843C3.15186 46.6751 3.1499 49.2664 3.15283 51.8572C3.15381 52.5555 3.42188 52.9603 3.98389 52.9822C4.91992 53.0193 5.85889 52.9925 6.81982 52.9925ZM47.7529 41.8782V52.9852C48.7388 52.9852 49.6948 53.0174 50.647 52.9725C51.1528 52.9495 51.3901 52.5574 51.4238 52.0755C51.4502 51.6971 51.4321 51.3152 51.4321 50.9354C51.4331 48.3084 51.4341 45.6824 51.4312 43.0565C51.4302 42.3162 51.125 41.9031 50.5142 41.8851C49.6118 41.8582 48.708 41.8782 47.7529 41.8782ZM45.9111 2.91534V10.3152C47.478 10.3152 48.9961 10.3304 50.5142 10.3084C51.041 10.3001 51.4121 9.93536 51.418 9.40509C51.4399 7.5423 51.4399 5.67706 51.4199 3.81427C51.415 3.33429 51.1431 2.93829 50.6372 2.92706C49.0679 2.89435 47.499 2.91534 45.9111 2.91534ZM10.5332 52.9754V41.9212H8.75586V52.9754H10.5332ZM45.8169 52.9764V41.9061H44.0371V52.9764H45.8169ZM42.1738 2.9173V10.2972H43.9531V2.9173H42.1738ZM10.6191 2.92413V10.2855H12.3931V2.92413H10.6191Z" fill="white" stroke="white"/>
<path d="M27.268 51.2132C24.9521 51.1253 22.6669 50.9295 20.498 50.0565C19.9999 49.8563 19.5077 49.5985 19.0761 49.2826C17.6308 48.2274 17.643 46.6463 19.0951 45.5775C20.0751 44.8553 21.2128 44.4872 22.3891 44.2435C25.9887 43.4925 29.5819 43.5042 33.1347 44.5003C33.9071 44.7162 34.6718 45.0633 35.3481 45.4955C36.9887 46.5453 36.9828 48.2792 35.3749 49.3866C34.0439 50.3026 32.5048 50.6605 30.9408 50.8783C29.724 51.0472 28.4931 51.1063 27.268 51.2132ZM26.4711 45.5575C25.6708 45.6712 24.0678 45.8334 22.496 46.1493C21.6991 46.3094 20.9359 46.7025 20.1991 47.0736C19.7519 47.2982 19.7748 47.5653 20.2099 47.8353C20.5751 48.0624 20.9677 48.2684 21.3749 48.4042C24.7231 49.5223 28.1327 49.5282 31.559 48.8656C32.3671 48.7093 33.1498 48.3944 33.9189 48.0882C34.2128 47.9715 34.4359 47.6742 34.6908 47.4603C34.4301 47.2303 34.1879 46.9706 33.9008 46.7792C33.664 46.6224 33.3778 46.5335 33.1059 46.4374C31.2211 45.7713 29.2587 45.6166 26.4711 45.5575Z" fill="white" stroke="white"/>
<path d="M30.9977 38.1672C27.4088 38.1672 23.8204 38.1672 20.2315 38.1663C19.2286 38.1663 18.9308 37.8713 18.9298 36.8772C18.9278 35.2283 18.9264 33.5784 18.9298 31.9294C18.9317 31.0623 19.2418 30.7444 20.1056 30.7444C27.3727 30.7415 34.6407 30.7415 41.9078 30.7444C42.7696 30.7444 43.0675 31.0593 43.0685 31.9392C43.0714 33.6062 43.0714 35.2732 43.0685 36.9402C43.0675 37.8601 42.7555 38.1663 41.8165 38.1663C38.2096 38.1682 34.6036 38.1672 30.9977 38.1672ZM20.8136 36.2712H41.1886V32.6443H20.8136V36.2712Z" fill="white" stroke="white"/>
</svg>
