<svg width="60" height="60" viewBox="0 0 60 60" fill="none" xmlns="http://www.w3.org/2000/svg">
<path d="M59.6265 39.9121V40.8408C59.1636 41.8452 58.3677 42.147 57.2896 42.1338C53.7935 42.0899 50.2955 42.1172 46.7994 42.1172H46.1055C46.2525 42.4668 46.3604 42.73 46.4717 42.9922C48.4434 47.624 50.4126 52.2578 52.3907 56.8882C52.6426 57.478 52.8438 58.0928 52.4556 58.6538C52.1866 59.043 51.7496 59.3159 51.3877 59.6421H50.4595C49.7286 59.3101 49.3477 58.7071 49.0547 57.9829C48.3975 56.354 47.6753 54.752 47.0064 53.127C46.8687 52.7901 46.7076 52.6582 46.3365 52.669C45.4288 52.6968 44.5196 52.6782 43.6104 52.6782C33.6334 52.6782 23.6568 52.6831 13.6797 52.6641C13.1675 52.6631 12.9454 52.8252 12.7608 53.2842C12.1255 54.8589 11.4205 56.4072 10.7876 57.9829C10.4966 58.708 10.1133 59.3101 9.38335 59.6421H8.45464C7.09868 58.8281 6.89751 58.2051 7.52642 56.7271C9.51372 52.0542 11.5035 47.3828 13.4908 42.711C13.5635 42.5391 13.6255 42.3609 13.7188 42.1172H13.0264C9.42974 42.1172 5.83355 42.1192 2.23638 42.1162C1.01372 42.1162 0.213429 41.416 0.220753 40.3653C0.227589 39.3159 1.02349 38.6411 2.25933 38.6362C2.73247 38.6338 3.20659 38.6362 3.6978 38.6362V37.8491C3.6978 29.4942 3.69976 21.1392 3.69536 12.7852C3.69536 11.5152 3.96148 10.3311 4.74566 9.30324C5.87261 7.82326 7.39556 7.18215 9.22759 7.1841C14.1587 7.18703 19.0884 7.18508 24.0196 7.18508H24.7017C24.7017 6.54787 24.6875 6.00588 24.7037 5.46486C24.8306 1.29787 29.0567 -1.08885 32.6343 1.01906C34.3384 2.02297 35.0997 3.62209 35.1407 5.57619C35.1524 6.10695 35.1426 6.63918 35.1426 7.18508H35.9336C40.8067 7.18508 45.6788 7.18508 50.5513 7.18508C51.4688 7.18508 52.3633 7.29982 53.1915 7.72805C55.2164 8.77492 56.1436 10.479 56.1436 12.7212C56.1465 21.1138 56.1456 29.5078 56.1456 37.9009V38.627C57.4776 38.6802 58.9415 38.294 59.6265 39.9121ZM7.17876 38.5943H35.2584C35.2584 36.9112 35.2544 35.2691 35.2608 33.6279C35.2657 32.377 35.9527 31.6768 37.1915 31.6748C40.5367 31.669 43.8814 31.669 47.2266 31.6738C48.4986 31.6758 49.1778 32.3711 49.1817 33.6621C49.1866 35.1309 49.1836 36.6011 49.1836 38.0708C49.1836 38.2529 49.1836 38.4361 49.1836 38.6011H52.6646V37.9409C52.6646 29.586 52.6646 21.232 52.6636 12.8779C52.6636 11.2769 52.0577 10.667 50.4644 10.667C36.7754 10.666 23.0865 10.666 9.39653 10.667C7.79058 10.667 7.17876 11.271 7.17876 12.8589C7.17876 21.2129 7.17876 29.5669 7.17876 37.9209V38.5943ZM45.3174 49.1792C44.3296 46.856 43.3877 44.6162 42.4097 42.3911C42.3448 42.2422 42.0186 42.1289 41.8135 42.1289C33.8858 42.1153 25.9576 42.1211 18.0293 42.106C17.6255 42.105 17.4634 42.2481 17.3184 42.5952C16.4698 44.625 15.5977 46.646 14.7354 48.6709C14.6705 48.8252 14.6275 48.9878 14.5635 49.1792H45.3174ZM38.7515 38.5991H45.6597V35.2012H38.7515V38.5991ZM31.6534 7.16311C31.6534 6.5049 31.6836 5.90822 31.6456 5.31496C31.5904 4.44094 30.8858 3.76711 30.0318 3.71096C29.1807 3.6548 28.3526 4.23781 28.2374 5.09914C28.1475 5.77199 28.2198 6.46584 28.2198 7.16311H31.6534Z" fill="white"/>
<path d="M29.9112 21.1113C24.2452 21.1113 18.5791 21.1123 12.9131 21.1113C12.7002 21.1113 12.4859 21.1206 12.2749 21.1015C11.354 21.0195 10.6592 20.2636 10.6651 19.3603C10.6709 18.4555 11.3721 17.7134 12.2969 17.6396C12.4888 17.6235 12.6841 17.6303 12.877 17.6303C24.2481 17.6303 35.6182 17.6303 46.9888 17.6303C47.085 17.6303 47.1822 17.6294 47.2788 17.6303C48.4048 17.6474 49.1861 18.3667 49.1792 19.3823C49.1719 20.3955 48.3921 21.1094 47.2569 21.1094C41.4751 21.1142 35.6929 21.1113 29.9112 21.1113Z" fill="white"/>
<path d="M29.98 24.5922C35.646 24.5922 41.312 24.5922 46.978 24.5937C47.1909 24.5937 47.4048 24.5844 47.6162 24.6073C48.5068 24.7064 49.1792 25.4535 49.1792 26.3334C49.1792 27.2143 48.5068 27.9613 47.6152 28.0595C47.4038 28.0824 47.1899 28.0736 46.9771 28.0736C35.6069 28.0746 24.2358 28.0746 12.8652 28.0746C11.4751 28.0746 10.6641 27.4325 10.665 26.3324C10.665 25.2323 11.4741 24.5922 12.8662 24.5922C18.5708 24.5922 24.2759 24.5922 29.98 24.5922Z" fill="white"/>
<path d="M21.1019 35.1539C18.2411 35.1539 15.3788 35.1632 12.517 35.15C11.1801 35.1442 10.3309 33.9669 10.7841 32.7901C11.0458 32.11 11.663 31.6842 12.4608 31.6769C13.7748 31.6642 15.0897 31.673 16.4047 31.672C20.8529 31.672 25.2997 31.6681 29.7479 31.6749C31.1298 31.6769 31.9999 32.839 31.538 34.0362C31.264 34.7482 30.6317 35.151 29.746 35.152C26.8651 35.1573 23.9838 35.1539 21.1019 35.1539Z" fill="white"/>
</svg>
