<svg width="57" height="58" viewBox="0 0 57 58" fill="none" xmlns="http://www.w3.org/2000/svg">
<path d="M0.749023 54.0718V35.251C1.34619 33.1372 2.83301 32.4658 4.74805 32.5122C7.79297 32.585 10.8408 32.5562 13.8872 32.52C15.1992 32.5039 16.3169 32.8228 17.248 34.0698C17.3862 33.8491 17.4658 33.6509 17.605 33.5122C18.8281 32.2739 20.043 31.0259 21.3052 29.8271C21.6938 29.457 21.7412 29.1382 21.6079 28.6479C19.8979 22.3228 18.2061 15.9932 16.5132 9.66406C16.252 8.68896 16.5151 8.23486 17.4858 7.97412C19.3042 7.48584 21.125 7.00488 22.9429 6.51904C24.46 6.11377 25.9761 5.70508 27.4658 5.30518C27.4902 5.21777 27.5078 5.18408 27.5078 5.14893C27.5122 4.29688 27.5151 3.44482 27.5161 2.59277C27.5181 1.4292 27.8481 1.08984 28.9912 1.08984C37.6602 1.08984 46.3281 1.08984 54.9961 1.08984C56.1162 1.08984 56.46 1.43311 56.46 2.5498C56.4609 20.1372 56.458 37.7241 56.4712 55.312C56.4722 55.98 56.2861 56.4702 55.6992 56.792H21.749C20.1089 56.4678 18.8462 55.5 17.647 54.2998C17.2192 55.6909 16.2881 56.438 15.0029 56.792H3.46924C2.0332 56.4141 1.12598 55.5078 0.749023 54.0718ZM29.731 3.29199V33.7012H31.8208V32.98C31.8208 26.1992 31.8208 19.4189 31.8208 12.6392C31.8208 12.439 31.8159 12.2388 31.832 12.041C31.8862 11.415 32.25 11.0498 32.8691 10.9888C34.6929 10.8101 35.6172 9.91406 35.8281 8.12109C35.9238 7.30713 36.292 6.96777 37.1152 6.9668C40.3599 6.96289 43.606 6.96289 46.8521 6.96582C47.6802 6.9668 48.0469 7.30078 48.145 8.11182C48.3652 9.91602 49.2881 10.8159 51.0972 10.9888C51.7021 11.0469 52.1172 11.3921 52.1279 11.978C52.1572 13.5 52.1572 15.0229 52.124 16.5449C52.1118 17.1108 51.6162 17.5107 51.0698 17.5122C50.5469 17.5122 50.105 17.1392 50.0132 16.6001C49.98 16.4048 49.98 16.2031 49.979 16.0039C49.9761 15.1519 49.9902 14.2998 49.9658 13.4478C49.9619 13.2881 49.8472 13.0269 49.728 12.9897C47.7959 12.396 46.6118 11.0952 46.0649 9.16406H37.9058C37.4082 10.959 36.3491 12.2451 34.5859 12.8481C34.0898 13.0181 33.9858 13.2539 33.9868 13.7339C34.002 20.1699 33.9971 26.606 33.9971 33.042V33.6802H39.7778C36.5952 31.98 36.0078 28.3638 37.75 25.9277C39.52 23.4521 43.0239 22.9868 45.3252 24.958C46.7451 26.1738 47.375 27.7412 47.1392 29.6099C46.9048 31.457 45.8618 32.7671 44.2651 33.6841C48.0708 33.042 50.272 36.0527 49.1992 38.936L49.978 39V38.291C49.978 34.5742 49.9771 30.8579 49.98 27.1411C49.98 26.9058 49.98 26.667 50.0229 26.438C50.123 25.9067 50.5889 25.5498 51.1152 25.5742C51.625 25.5962 52.0449 25.96 52.1221 26.4741C52.1558 26.7061 52.1528 26.9438 52.1528 27.1792C52.1548 31.4209 52.1489 35.6641 52.165 39.9058C52.166 40.2109 52.2622 40.5479 52.4102 40.8169C53.4741 42.7549 52.688 45.1328 50.665 46.0317C50.52 46.0962 50.376 46.1621 50.2002 46.2422C50.7378 47.5342 50.6992 48.7759 49.9189 49.9341C49.127 51.1079 47.9639 51.5889 46.5288 51.5898C46.9629 52.6162 46.9111 53.6021 46.5591 54.5742H54.2568V3.29199H29.731ZM22.4731 31.728C20.8979 33.3008 19.3921 34.793 17.9072 36.3052C17.7788 36.4351 17.731 36.6919 17.731 36.8901C17.7212 41.6221 17.7178 46.354 17.7378 51.0859C17.7388 51.3291 17.8989 51.6299 18.0811 51.8018C18.7671 52.4478 19.5 53.0439 20.2012 53.6738C20.9238 54.3228 21.7568 54.6221 22.73 54.6201C29.439 54.6118 36.1489 54.6162 42.8589 54.6147C43.0039 54.6147 43.1499 54.6201 43.293 54.604C43.9409 54.5317 44.4541 54.0898 44.6099 53.4761C44.8682 52.459 44.1558 51.5781 43.0391 51.5728C40.373 51.563 37.708 51.5708 35.042 51.5688C34.251 51.5679 33.7451 51.1489 33.7319 50.5C33.7192 49.834 34.2388 49.396 35.0591 49.395C36.855 49.3921 38.6499 49.394 40.4448 49.394C42.5308 49.394 44.6162 49.397 46.7012 49.3921C47.519 49.3901 48.085 49.0088 48.2998 48.3379C48.6401 47.2817 47.8892 46.3511 46.6758 46.3501C42.8682 46.3438 39.0601 46.3481 35.252 46.3472C35.0518 46.3472 34.8501 46.3589 34.6548 46.3291C34.1309 46.2471 33.7388 45.7861 33.7319 45.271C33.7261 44.7588 34.1138 44.2832 34.6328 44.1938C34.8281 44.1602 35.0308 44.1729 35.23 44.1729C39.147 44.1719 43.064 44.1719 46.981 44.1719C47.7251 44.1719 48.4692 44.1899 49.2119 44.1641C50.147 44.1309 50.7969 43.3608 50.6919 42.4531C50.5981 41.6489 49.936 41.1279 48.9819 41.127C44.4131 41.124 39.8428 41.126 35.2729 41.125C35.0732 41.125 34.8701 41.1411 34.6758 41.1089C34.1768 41.0259 33.8569 40.7222 33.7568 40.23C33.665 39.7778 33.8281 39.377 34.2241 39.1592C34.4771 39.019 34.8062 38.959 35.1011 38.958C38.5098 38.9448 41.9189 38.9502 45.3281 38.9502C46.5791 38.9502 47.2969 38.4009 47.3062 37.438C47.3149 36.4761 46.5879 35.9038 45.3511 35.9038C38.46 35.9038 31.5688 35.9038 24.6782 35.9028C23.792 35.9028 23.4868 35.6611 23.2661 34.7988C23.0088 33.8027 22.752 32.8071 22.4731 31.728ZM8.14795 34.707C6.83691 34.707 5.58887 34.7061 4.3418 34.707C3.29297 34.709 2.92578 35.0688 2.92578 36.104C2.92383 41.814 2.92383 47.5249 2.92578 53.2349C2.92578 54.2358 3.3042 54.6147 4.3042 54.6147C7.56689 54.6172 10.8311 54.6162 14.0952 54.6162C15.2031 54.6147 15.5469 54.2671 15.5469 53.145C15.5469 47.4897 15.5469 41.834 15.5469 36.1777C15.5469 36.0151 15.5591 35.8491 15.5361 35.689C15.4609 35.1641 15.1528 34.7588 14.6382 34.7412C13.2148 34.6909 11.7881 34.7231 10.3242 34.7231V35.3618C10.3242 38.8062 10.3242 42.25 10.3242 45.6938C10.3242 46.2202 10.3408 46.7471 10.3159 47.271C10.2842 47.8979 9.81885 48.3228 9.21924 48.314C8.64307 48.3062 8.20605 47.8901 8.15381 47.29C8.14014 47.1279 8.14795 46.9639 8.14795 46.8008C8.14795 44.0459 8.14795 41.29 8.14795 38.5352V34.707ZM18.8042 9.87891L25.2388 33.71H27.4072C27.3452 33.4761 27.293 33.269 27.2368 33.063C25.9131 28.1519 24.5879 23.2422 23.2651 18.332C23.001 17.3511 23.1982 16.979 24.144 16.6279C25.4839 16.1328 26.269 14.856 26.0908 13.46C25.9302 12.1909 26.0229 12.0508 27.2021 11.644C27.3301 11.6001 27.5 11.4219 27.502 11.3027C27.5239 10.0742 27.5161 8.84277 27.5161 7.5459L18.8042 9.87891ZM45.0229 28.9229C45.0122 27.2607 43.6162 25.8882 41.957 25.9067C40.313 25.9248 38.959 27.2881 38.9531 28.9312C38.9482 30.5918 40.3301 31.978 41.9912 31.9751C43.6528 31.9731 45.0342 30.582 45.0229 28.9229ZM27.4888 16.8242C26.9009 17.3101 26.291 17.7998 25.7041 18.3169C25.6211 18.3901 25.603 18.603 25.6348 18.7329C25.8188 19.4868 26.0249 20.2349 26.2271 20.9839C26.626 22.458 27.0278 23.9302 27.4292 25.4019L27.4888 25.3892V16.8242Z" fill="white" stroke="white"/>
<path d="M51.0804 22.8454C50.4945 22.8522 50.0042 22.3751 49.9906 21.7853C49.9754 21.1759 50.4784 20.6662 51.0843 20.6759C51.6776 20.6852 52.1424 21.1642 52.1414 21.7623C52.1405 22.36 51.6712 22.839 51.0804 22.8454Z" fill="white" stroke="white"/>
<path d="M10.3204 51.3656C10.3116 51.9642 9.79062 52.4584 9.19443 52.4344C8.61777 52.4105 8.14463 51.9125 8.15244 51.3353C8.16172 50.7352 8.68174 50.2425 9.27842 50.2665C9.85654 50.2904 10.3297 50.7884 10.3204 51.3656Z" fill="white" stroke="white"/>
</svg>
