<svg width="87" height="100" viewBox="0 0 87 100" fill="none" xmlns="http://www.w3.org/2000/svg">
<path d="M86.089 64.8699C85.246 60.2549 83.045 55.1499 79.705 50.0438C83.045 44.9338 85.246 39.8329 86.089 35.2189C86.996 30.2609 86.449 25.1709 83.4 21.1559C84.975 17.3209 82.13 13.1699 78.051 13.1699C76.349 13.1699 74.763 13.9209 73.68 15.1628C70.221 14.3079 66.234 14.1519 61.799 14.6998C56.953 5.74683 50.517 0.836914 43.574 0.836914C36.627 0.836914 30.19 5.74988 25.349 14.6998C15.245 13.4569 7.514 15.8499 3.48403 21.5109C-2.44096 29.8408 1.87404 41.5309 7.43905 50.0438C0.232015 61.0619 -3.416 75.4839 7.69503 82.5319C7.46303 85.9078 10.147 88.7249 13.467 88.7249C15.657 88.7249 17.598 87.5059 18.577 85.6559C20.858 85.7759 23.111 85.6599 25.345 85.3889C30.191 94.3419 36.627 99.2518 43.574 99.2518C50.518 99.2518 56.954 94.3419 61.799 85.3889C65.131 85.7959 68.535 85.8558 71.819 85.3088C72.886 86.7988 74.6161 87.7219 76.521 87.7219C80.305 87.7219 83.109 84.1179 82.106 80.4149C86.193 76.3239 87.144 70.6229 86.089 64.8699ZM72.266 18.8029C72.178 22.0819 74.819 24.7509 78.051 24.7509C79.005 24.7509 79.924 24.5189 80.743 24.0879C84.159 29.3059 82.869 37.5719 77.303 46.6279C74.838 43.3519 71.962 40.1519 68.722 37.0719C67.747 30.2079 65.997 23.8198 63.608 18.3909C66.8 18.1069 69.733 18.2478 72.266 18.8029ZM69.373 43.1998C71.467 45.4369 73.356 47.7258 75.022 50.0438C73.356 52.3608 71.467 54.6499 69.373 56.8868C69.693 52.4808 69.717 47.9619 69.373 43.1998ZM65.079 61.1339C58.471 67.2019 50.944 72.2158 43.574 75.7439C36.191 72.2079 28.66 67.1898 22.068 61.1339C21.154 53.8589 21.154 46.2319 22.068 38.9529C28.664 32.8959 36.191 27.8779 43.574 24.3429C50.956 27.8779 58.487 32.8959 65.079 38.9529C65.994 46.2279 65.994 53.8539 65.079 61.1339ZM64.104 32.9879C58.95 28.7289 53.525 25.1578 48.159 22.3289C52.091 20.7589 55.978 19.6079 59.613 18.9369C61.535 23.0479 63.058 27.8179 64.104 32.9879ZM57.752 15.3658C53.197 16.3049 48.443 17.8829 43.574 20.0839C38.708 17.8829 33.953 16.3009 29.395 15.3658C37.689 1.13586 49.453 1.13586 57.752 15.3658ZM27.529 18.9379C31.1681 19.6049 35.056 20.7549 38.982 22.3259C33.605 25.1578 28.18 28.7339 23.038 32.9849C24.089 27.8188 25.608 23.0488 27.529 18.9379ZM6.62301 23.7518C9.62704 19.5328 15.584 17.6628 23.542 18.3859C21.149 23.8198 19.399 30.2079 18.424 37.0719C15.18 40.1478 12.304 43.3519 9.83901 46.6279C4.15401 37.3708 2.928 28.9459 6.62301 23.7518ZM17.769 56.8859C15.675 54.6489 13.786 52.3599 12.12 50.0428C13.786 47.7258 15.675 45.4369 17.769 43.1989C17.449 47.6058 17.425 52.1229 17.769 56.8859ZM15.364 83.2819C15.2 84.1969 14.401 84.8639 13.466 84.8639C12.112 84.8639 11.185 83.4979 11.66 82.2479V82.2439C11.944 81.5009 12.667 81.0009 13.462 81.0009C14.629 81.0049 15.579 82.0359 15.364 83.2819ZM19.147 81.8159C18.624 79.1549 16.279 77.1459 13.466 77.1459C11.86 77.1459 10.35 77.8248 9.27505 78.9519C1.24502 73.3029 4.717 61.7969 9.83803 53.4629C12.303 56.7389 15.18 59.9388 18.42 63.0189C19.395 69.8789 21.145 76.2709 23.534 81.7009C22.007 81.8319 20.541 81.8718 19.147 81.8159ZM23.038 67.0979C28.18 71.3489 33.605 74.9238 38.983 77.7568C35.056 79.3269 31.1681 80.4779 27.529 81.1489C25.607 77.0378 24.088 72.2678 23.038 67.0979ZM43.573 95.3909C38.395 95.3909 33.421 91.6239 29.395 84.7198C33.953 83.7809 38.707 82.1989 43.573 80.0018C48.443 82.2029 53.197 83.7849 57.751 84.7198C53.724 91.6229 48.75 95.3909 43.573 95.3909ZM59.613 81.1478C55.974 80.4769 52.091 79.3269 48.16 77.7568C53.525 74.9319 58.951 71.3599 64.104 67.0979C63.058 72.2668 61.535 77.0369 59.614 81.1478H59.613ZM76.52 83.8608C75.685 83.8608 74.946 83.3298 74.687 82.5309C74.279 81.3079 75.198 80.0018 76.52 80.0018C77.607 80.0018 78.45 80.8849 78.45 81.9309C78.45 82.9939 77.587 83.8608 76.52 83.8608ZM80.519 76.3339C80.308 76.6299 80.08 76.9089 79.836 77.1849C78.881 76.5139 77.735 76.1418 76.516 76.1418C73.448 76.1418 70.927 78.5438 70.74 81.5679C68.574 81.8868 66.185 81.9309 63.596 81.6998C65.989 76.2699 67.739 69.8779 68.714 63.0139C71.958 59.9379 74.835 56.7339 77.299 53.4579C82.988 62.7139 84.215 71.1399 80.519 76.3339Z" fill="white"/>
<path d="M32.959 50.0437C32.959 55.8967 37.721 60.6588 43.574 60.6588C49.427 60.6588 54.189 55.8967 54.189 50.0437C54.189 44.1908 49.427 39.4287 43.574 39.4287C37.721 39.4287 32.959 44.1908 32.959 50.0437Z" fill="white"/>
</svg>
