<svg width="79" height="120" viewBox="0 0 79 120" fill="none" xmlns="http://www.w3.org/2000/svg">
<path d="M29.3199 13.2063C31.7321 13.2063 33.679 11.2593 33.679 8.84729C33.679 6.4353 31.7321 4.48828 29.3199 4.48828C26.908 4.48828 24.9611 6.4353 24.9611 8.84729C24.9611 11.2443 26.908 13.2063 29.3199 13.2063Z" fill="white"/>
<path d="M51.174 8.84692C53.585 8.84692 55.533 6.8999 55.533 4.48792C55.533 2.0769 53.585 0.128906 51.174 0.128906C48.762 0.128906 46.8149 2.0769 46.8149 4.48792C46.8149 6.8999 48.762 8.84692 51.174 8.84692Z" fill="white"/>
<path d="M39.835 65.0021C42.2469 65.0021 44.194 63.0552 44.194 60.6431C44.194 58.2322 42.2469 56.2852 39.835 56.2852C37.423 56.2852 35.476 58.2322 35.476 60.6431C35.476 63.0552 37.423 65.0021 39.835 65.0021Z" fill="white"/>
<path d="M39.835 19.7661C41.558 19.7661 42.951 18.3732 42.951 16.6511C42.951 14.9281 41.558 13.5352 39.835 13.5352C38.1121 13.5352 36.719 14.9281 36.719 16.6511C36.719 18.3732 38.1121 19.7661 39.835 19.7661Z" fill="white"/>
<path d="M42.936 72.4319C42.936 74.1539 44.329 75.5469 46.051 75.5469C47.774 75.5469 49.167 74.1539 49.167 72.4319C49.167 70.7089 47.774 69.3159 46.051 69.3159C44.329 69.3159 42.936 70.7089 42.936 72.4319Z" fill="white"/>
<path d="M78.0461 110.118L53.7801 68.0582C49.8261 61.1832 47.7441 53.3943 47.7441 45.4702V33.1722H48.028C50.3051 33.1722 52.1621 31.3452 52.1621 29.0382C52.1621 26.7612 50.3051 24.9043 48.028 24.9043H31.642C29.3651 24.9043 27.5081 26.7612 27.5081 29.0382C27.5081 31.3302 29.3651 33.1722 31.642 33.1722H31.9261V45.4702C31.9261 53.3943 29.8291 61.1982 25.8901 68.0582L1.6241 110.118C0.441053 112.185 0.411085 114.642 1.59407 116.679C2.77809 118.746 4.9051 119.959 7.27107 119.959H72.3991C74.7801 119.959 76.892 118.746 78.0761 116.679C79.2591 114.642 79.2591 112.185 78.0461 110.118ZM75.8291 115.391C75.1101 116.649 73.8371 117.383 72.3991 117.383H7.27107C5.81807 117.383 4.56007 116.664 3.84108 115.391C3.12208 114.147 3.12208 112.679 3.84108 111.421L23.0291 78.1682L24.4821 75.6973L28.122 69.3762C32.3011 62.1262 34.533 53.8583 34.533 45.4852V31.8843C34.533 31.1803 33.9631 30.5962 33.2441 30.5962H31.6721C30.788 30.5962 30.1291 29.9222 30.1291 29.0532C30.1291 28.1992 30.8331 27.5103 31.6721 27.5103H48.043C48.897 27.5103 49.5861 28.2142 49.5861 29.0532C49.5861 29.9373 48.9121 30.5962 48.043 30.5962H46.471C45.752 30.5962 45.1821 31.1952 45.1821 31.8843V45.4702C45.1821 53.8433 47.3991 62.0962 51.5931 69.3612L60.341 84.5492L61.7641 87.0062L75.8591 111.451C76.548 112.679 76.548 114.147 75.8291 115.391Z" fill="white"/>
<path d="M58.918 87.2762L57.45 84.7443C50.7691 85.1042 45.3471 84.0403 41.573 81.6443C37.0341 78.7832 32.3011 76.9253 27.2381 76.0713L26.729 76.9702L25.845 78.4683L25.246 79.4573L6.08805 112.709C5.80301 113.174 5.80301 113.638 6.05802 114.102C6.34305 114.567 6.73203 114.806 7.27103 114.806H72.3991C72.938 114.806 73.3271 114.567 73.5821 114.102C73.8371 113.668 73.8371 113.174 73.6121 112.739L58.918 87.2762ZM27.4931 109.07C25.096 109.07 23.1341 107.107 23.1341 104.711C23.1341 102.314 25.096 100.367 27.4931 100.367C29.8891 100.367 31.851 102.299 31.851 104.711C31.851 107.107 29.8891 109.07 27.4931 109.07ZM30.5931 91.3502C28.886 91.3502 27.4931 89.9573 27.4931 88.2493C27.4931 86.5122 28.886 85.1193 30.5931 85.1193C32.3161 85.1193 33.724 86.5122 33.724 88.2493C33.709 89.9573 32.3161 91.3502 30.5931 91.3502ZM42.9511 103.453C41.2281 103.453 39.82 102.06 39.82 100.352C39.82 98.6143 41.213 97.2212 42.9511 97.2212C44.658 97.2212 46.0511 98.6143 46.0511 100.352C46.0511 102.06 44.658 103.453 42.9511 103.453ZM60.82 109.07C58.424 109.07 56.4611 107.107 56.4611 104.711C56.4611 102.314 58.424 100.367 60.82 100.367C63.2171 100.367 65.179 102.299 65.179 104.711C65.194 107.107 63.2171 109.07 60.82 109.07Z" fill="white"/>
</svg>
