<svg width="88" height="63" viewBox="0 0 88 63" fill="none" xmlns="http://www.w3.org/2000/svg">
<path d="M1.94507 8.06189V22.5649C1.94507 25.8979 4.64703 28.6009 7.98004 28.6009H12.0341V35.8069L19.0601 28.6009H55.813C59.1461 28.6009 61.8481 25.8979 61.8481 22.5649V8.06189C61.8481 4.72888 59.1461 2.02686 55.813 2.02686H7.98004C4.64703 2.02686 1.94507 4.72888 1.94507 8.06189Z" fill="white" stroke="#CC0000" stroke-width="2.30436"/>
<line x1="54.8906" y1="11.0611" x2="7.79979" y2="11.0611" stroke="#CC0000" stroke-width="2.30436"/>
<line x1="54.8906" y1="16.4659" x2="7.79979" y2="16.4659" stroke="#CC0000" stroke-width="2.30436"/>
<line x1="54.8906" y1="21.8709" x2="7.79979" y2="21.8709" stroke="#CC0000" stroke-width="2.30436"/>
<path d="M86.6201 31.4539V45.9569C86.6201 49.2899 83.9181 51.9919 80.5851 51.9919H76.5311V59.1979L69.5051 51.9919H32.7521C29.4191 51.9919 26.717 49.2899 26.717 45.9569V31.4539C26.717 28.1209 29.4191 25.418 32.7521 25.418H80.5851C83.9181 25.418 86.6201 28.1209 86.6201 31.4539Z" fill="white" stroke="#CC0000" stroke-width="2.30436"/>
<line x1="33.6741" y1="32.1481" x2="80.7649" y2="32.1481" stroke="#CC0000" stroke-width="2.30436"/>
<line x1="33.6741" y1="37.5529" x2="80.7649" y2="37.5529" stroke="#CC0000" stroke-width="2.30436"/>
<line x1="33.6741" y1="42.9577" x2="80.7649" y2="42.9577" stroke="#CC0000" stroke-width="2.30436"/>
</svg>
