<svg width="66" height="66" viewBox="0 0 66 66" fill="none" xmlns="http://www.w3.org/2000/svg">
<path d="M24.235 65.5409C23.468 65.1488 23.242 64.5138 23.243 63.6728C23.26 52.1438 23.255 40.6148 23.255 29.0849C23.255 27.7088 23.582 27.3789 24.961 27.1549C29.352 26.4399 33.742 25.7149 38.127 24.9629C39.775 24.6798 40.741 23.4689 40.747 21.8089C40.749 21.3258 40.747 20.8439 40.747 20.2638C40.451 20.2638 40.207 20.2638 39.963 20.2638C34.916 20.2638 29.868 20.2658 24.821 20.2629C23.805 20.2619 23.221 19.7909 23.195 18.9739C23.173 18.2868 23.603 17.7478 24.283 17.6369C24.511 17.5998 24.746 17.5979 24.977 17.5968C30.532 17.5948 36.086 17.5929 41.641 17.6029C41.992 17.6029 42.407 17.6029 42.676 17.7799C42.978 17.9768 43.332 18.3699 43.343 18.6878C43.393 20.1399 43.496 21.6219 43.272 23.0448C42.875 25.5628 40.899 27.2279 38.213 27.6499C35.902 28.0129 33.598 28.4159 31.255 28.8069V31.7279C31.517 31.7419 31.761 31.7658 32.006 31.7669C35.173 31.7688 38.341 31.7679 41.509 31.7688C41.72 31.7688 41.933 31.7608 42.142 31.7859C42.909 31.8789 43.384 32.4079 43.372 33.1358C43.359 33.8309 42.887 34.4098 42.145 34.4148C38.028 34.4408 33.91 34.4419 29.792 34.4098C29.015 34.4029 28.573 33.8179 28.564 32.9928C28.55 31.7729 28.56 30.5528 28.56 29.2629L25.914 29.6958V30.5749C25.914 41.5979 25.908 52.6199 25.927 63.6429C25.929 64.4729 25.743 65.1219 24.995 65.5409H24.235Z" fill="#CC0000"/>
<path d="M8.01496 65.5411C7.13594 65.2071 6.88594 64.5491 6.89094 63.6451C6.91896 59.2971 6.90394 54.9491 6.90394 50.6001V49.8651C6.15296 49.7651 5.45497 49.7331 4.78694 49.5741C2.19294 48.9551 0.30897 46.7131 0.291942 44.0641C0.25294 37.9641 0.216929 31.8621 0.323924 25.7641C0.375926 22.8161 1.49794 20.2811 4.23194 18.7551C5.63893 17.9701 7.18293 17.6361 8.78694 17.5901C9.60298 17.5661 10.2089 18.1061 10.252 18.8551C10.2919 19.5611 9.76094 20.1381 8.97193 20.2451C8.32594 20.3331 7.66993 20.3741 7.03492 20.5131C4.71296 21.0201 3.48097 22.5581 3.07997 24.8281C2.98493 25.3661 2.93293 25.9181 2.93196 26.4641C2.92097 32.2261 2.91493 37.9891 2.92695 43.7521C2.93196 45.9161 4.79597 47.4571 6.90394 47.0201C6.90394 46.7851 6.90394 46.5361 6.90394 46.2871C6.90394 40.4191 6.90296 34.5511 6.90498 28.6831C6.90498 27.6031 7.41297 27.0021 8.28797 27.0261C8.94093 27.0441 9.45594 27.4961 9.53694 28.1421C9.56593 28.3721 9.56092 28.6061 9.56092 28.8381C9.56196 40.4481 9.55494 52.0571 9.57594 63.6671C9.57698 64.5431 9.34993 65.1831 8.52192 65.5411H8.01496Z" fill="#CC0000"/>
<path d="M32.7249 65.5411C32.6129 65.4941 32.5029 65.4341 32.3859 65.4041C30.4539 64.9161 29.1759 63.7171 28.7129 61.7871C28.2429 59.8251 28.8799 58.1791 30.3989 56.8531C30.6139 56.6651 30.7949 56.3631 30.853 56.0851C31.2039 54.3921 31.5099 52.6901 31.8419 50.9941C32.0139 50.1161 32.6299 49.6531 33.3999 49.7961C34.1969 49.9451 34.6119 50.6281 34.4449 51.5231C34.1849 52.9071 33.9229 54.2901 33.6449 55.7591C34.7099 55.6741 35.6889 55.6011 36.668 55.5151C38.4959 55.3541 40.3229 55.1661 42.1539 55.0321C42.6859 54.9931 42.9699 54.7851 43.2039 54.3131C44.2819 52.1411 45.3989 49.9881 46.5019 47.8281C46.5689 47.6961 46.6279 47.5601 46.702 47.4331C47.1059 46.7341 47.8129 46.4851 48.4739 46.8041C49.1559 47.1341 49.4189 47.8941 49.0619 48.6341C48.5949 49.6031 48.0939 50.5551 47.6049 51.5131C46.7429 53.2031 45.8679 54.8871 45.0209 56.5861C44.7049 57.2211 44.2319 57.5041 43.5279 57.5621C40.142 57.8431 36.7579 58.1471 33.3749 58.4581C32.0749 58.5781 31.1589 59.5741 31.2189 60.7491C31.2829 61.9671 32.2339 62.8631 33.5419 62.8671C38.2719 62.8801 43.0029 62.8791 47.7329 62.8541C47.9849 62.8521 48.3209 62.6421 48.4759 62.4261C49.866 60.4891 51.2289 58.5321 52.5909 56.5741C52.9579 56.0481 53.409 55.7061 54.0779 55.8451C55.0569 56.0471 55.4439 57.1001 54.8509 57.9791C54.107 59.0811 53.331 60.1611 52.5689 61.2501C51.806 62.3391 51.0639 63.4441 50.2699 64.5091C49.9769 64.9011 49.5599 65.2001 49.1989 65.5411H32.7249Z" fill="#CC0000"/>
<path d="M60.8571 65.541C60.087 65.2009 59.822 64.62 59.829 63.7769C59.861 59.7899 59.8311 55.8029 59.849 51.8159C59.8571 49.955 59.287 48.346 57.9771 47.004C57.401 46.414 57.396 45.607 57.918 45.08C58.473 44.52 59.26 44.538 59.8831 45.1649C61.515 46.806 62.441 48.796 62.472 51.104C62.53 55.4279 62.485 59.753 62.4969 64.078C62.499 64.8209 62.073 65.223 61.491 65.541H60.8571Z" fill="#CC0000"/>
<path d="M16.125 65.5411C15.2849 65.216 14.994 64.599 15.002 63.711C15.032 60.337 15.01 56.9631 15.016 53.589C15.018 52.498 15.777 51.802 16.673 52.0591C17.286 52.234 17.658 52.6451 17.6599 53.294C17.669 56.9421 17.664 60.591 17.662 64.2391C17.662 64.94 17.156 65.2491 16.632 65.5411H16.125Z" fill="#CC0000"/>
<path d="M31.325 3.33907C31.325 3.68111 31.325 3.93007 31.325 4.17806C31.325 7.1761 31.321 10.1741 31.329 13.1711C31.331 13.7171 31.184 14.1721 30.71 14.4751C29.841 15.0311 28.699 14.4581 28.691 13.4071C28.665 9.60707 28.673 5.80709 28.686 2.0071C28.689 1.2621 29.216 0.755084 29.962 0.693073C30.13 0.679095 30.299 0.687091 30.468 0.687091C41.427 0.687091 52.385 0.687091 63.343 0.687091C63.47 0.687091 63.597 0.683063 63.724 0.689105C64.5909 0.725055 65.0229 1.17208 65.0229 2.03908C65.0229 10.2721 65.0229 18.5051 65.0229 26.7391C65.0229 28.8711 64.9871 31.0041 65.042 33.1351C65.062 33.9121 64.462 34.3861 63.864 34.4271C63.16 34.4761 62.563 33.9551 62.493 33.2261C62.469 32.9751 62.476 32.7201 62.476 32.4671C62.476 23.0511 62.476 13.6361 62.476 4.22109C62.475 3.34011 62.475 3.33907 61.58 3.33907C51.783 3.33907 41.986 3.33907 32.189 3.33907H31.325Z" fill="#CC0000"/>
<path d="M45.604 36.1839C45.773 35.0849 45.822 33.9499 46.136 32.8949C46.844 30.5119 49.287 28.4249 52.693 28.5339C55.776 28.6319 58.397 30.5609 58.986 33.5649C59.239 34.8509 59.269 36.2209 59.149 37.5299C59.014 39.0049 58.766 40.5159 58.26 41.8989C57.493 43.9969 56.009 45.5218 53.7209 45.9979C51.15 46.5339 48.839 45.4939 47.349 43.2469C46.3 41.6639 45.955 39.8769 45.798 38.0339C45.746 37.4239 45.736 36.8119 45.706 36.1999L45.604 36.1839ZM48.342 36.2099C48.419 37.1279 48.467 38.0129 48.574 38.8899C48.732 40.1899 49.139 41.3999 50.045 42.3869C51.42 43.8838 53.65 43.8899 54.927 42.3119C55.4561 41.6589 55.896 40.8519 56.114 40.0439C56.6121 38.2009 56.7111 36.2959 56.452 34.3959C56.21 32.6179 54.729 31.2929 52.968 31.2019C50.658 31.0818 48.996 32.1219 48.559 34.0429C48.398 34.7539 48.408 35.5049 48.342 36.2099Z" fill="#CC0000"/>
<path d="M9.56494 8.59311C9.56494 6.66507 9.76593 4.8071 11.0549 3.22611C12.7399 1.16111 15.6199 0.303073 18.403 1.08408C20.9069 1.78611 22.7199 3.9321 22.989 6.63309C23.231 9.0651 23.1439 11.4951 22.3079 13.8181C21.5269 15.9861 20.14 17.6391 17.812 18.2491C15.2679 18.9161 12.762 17.8571 11.2369 15.5701C10.2089 14.0271 9.84393 12.2891 9.68097 10.4881C9.62396 9.85807 9.60297 9.22507 9.56494 8.59311ZM12.2239 8.2811C12.2659 9.12412 12.2709 9.69608 12.327 10.2621C12.4819 11.8281 12.7479 13.3601 13.8419 14.6011C15.2659 16.2141 17.5909 16.2111 18.892 14.4981C19.4119 13.8131 19.8199 12.9711 20.0319 12.1371C20.4699 10.4141 20.551 8.63712 20.3499 6.86008C20.1379 4.98709 18.726 3.6481 16.817 3.4971C14.6199 3.32309 12.9 4.38907 12.442 6.29508C12.267 7.02408 12.2729 7.79807 12.2239 8.2811Z" fill="#CC0000"/>
</svg>
