<svg width="70" height="68" viewBox="0 0 70 68" fill="none" xmlns="http://www.w3.org/2000/svg">
<path d="M1.8764 5.14956C1.8764 3.07383 3.55912 1.39111 5.63485 1.39111H47.3523C49.4281 1.39111 51.1108 3.07383 51.1108 5.14956V50.7856C51.1108 52.8614 49.4281 54.5441 47.3523 54.5441H5.63485C3.55912 54.5441 1.8764 52.8614 1.8764 50.7856V5.14956Z" fill="white" stroke="#CC0000" stroke-width="2.30436"/>
<line x1="5.77985" y1="7.16691" x2="47.2074" y2="7.16691" stroke="#CC0000" stroke-width="2.30436"/>
<line x1="5.77985" y1="16.7404" x2="47.2074" y2="16.7404" stroke="#CC0000" stroke-width="2.30436"/>
<line x1="5.77985" y1="26.3136" x2="47.2074" y2="26.3136" stroke="#CC0000" stroke-width="2.30436"/>
<line x1="5.77985" y1="35.8869" x2="47.2074" y2="35.8869" stroke="#CC0000" stroke-width="2.30436"/>
<line x1="5.77985" y1="45.4604" x2="47.2074" y2="45.4604" stroke="#CC0000" stroke-width="2.30436"/>
<path d="M18.775 17.4396C18.775 15.3639 20.4577 13.6812 22.5335 13.6812H64.2509C66.3267 13.6812 68.0094 15.3639 68.0094 17.4396V63.0757C68.0094 65.1514 66.3267 66.8341 64.2509 66.8341H22.5335C20.4577 66.8341 18.775 65.1514 18.775 63.0757V17.4396Z" fill="white" stroke="#CC0000" stroke-width="2.30436"/>
<line x1="22.6785" y1="19.4567" x2="64.106" y2="19.4567" stroke="#CC0000" stroke-width="2.30436"/>
<line x1="22.6785" y1="29.0302" x2="64.106" y2="29.0302" stroke="#CC0000" stroke-width="2.30436"/>
<line x1="22.6785" y1="38.6037" x2="64.106" y2="38.6037" stroke="#CC0000" stroke-width="2.30436"/>
<line x1="22.6785" y1="48.1769" x2="64.106" y2="48.1769" stroke="#CC0000" stroke-width="2.30436"/>
<line x1="22.6785" y1="57.7502" x2="64.106" y2="57.7502" stroke="#CC0000" stroke-width="2.30436"/>
</svg>
