<svg width="48" height="48" viewBox="0 0 48 48" fill="none" xmlns="http://www.w3.org/2000/svg">
<path d="M1 24.3457C1 11.833 11.1436 1.68945 23.6563 1.68945V1.68945C36.169 1.68945 46.3126 11.833 46.3126 24.3457V24.3457C46.3126 36.8584 36.169 47.0019 23.6563 47.0019V47.0019C11.1436 47.0019 1 36.8584 1 24.3457V24.3457Z" stroke="white" stroke-width="1.4055"/>
<path d="M20.204 38.04H25.719V24.229H29.567L29.9771 19.605H25.719V16.9709C25.719 15.8811 25.938 15.45 26.993 15.45H29.9771V10.6509H26.158C22.0551 10.6509 20.204 12.459 20.204 15.918V19.605H17.335V24.2871H20.204V38.04Z" fill="white"/>
</svg>
