<svg width="48" height="48" viewBox="0 0 48 48" fill="none" xmlns="http://www.w3.org/2000/svg">
<path d="M24.167 47.002C11.6541 47.002 1.51001 36.8579 1.51001 24.3459C1.51001 11.834 11.6541 1.68896 24.167 1.68896C36.679 1.68896 46.823 11.833 46.823 24.345C46.823 36.8569 36.679 47.002 24.167 47.002Z" stroke="white" stroke-width="1.4055"/>
<path d="M24.167 14.1606C27.484 14.1606 27.877 14.1738 29.186 14.2336C30.397 14.2888 31.0551 14.4907 31.493 14.6619C32.073 14.8867 32.4871 15.1558 32.921 15.5908C33.356 16.0256 33.625 16.4387 33.851 17.0188C34.021 17.4568 34.223 18.1147 34.2791 19.3257C34.338 20.6357 34.351 21.0288 34.351 24.3457C34.351 27.6628 34.338 28.0557 34.2791 29.3647C34.223 30.5767 34.021 31.2336 33.851 31.6719C33.625 32.2517 33.356 32.6658 32.921 33.0999C32.4871 33.5347 32.073 33.8037 31.493 34.0298C31.0551 34.1997 30.397 34.4019 29.186 34.4578C27.877 34.5168 27.484 34.5298 24.167 34.5298C20.849 34.5298 20.457 34.5168 19.147 34.4578C17.936 34.4019 17.278 34.1997 16.84 34.0298C16.26 33.8037 15.847 33.5347 15.412 33.0999C14.9771 32.6658 14.708 32.2517 14.483 31.6719C14.313 31.2336 14.11 30.5767 14.0551 29.3647C13.995 28.0557 13.983 27.6628 13.983 24.3457C13.983 21.0288 13.995 20.6357 14.0551 19.3257C14.11 18.1147 14.313 17.4568 14.483 17.0188C14.708 16.4387 14.9771 16.0256 15.412 15.5908C15.847 15.1558 16.26 14.8867 16.84 14.6619C17.278 14.4907 17.936 14.2888 19.147 14.2336C20.457 14.1738 20.85 14.1606 24.167 14.1606ZM24.167 11.9229C20.793 11.9229 20.37 11.9377 19.045 11.9978C17.723 12.0579 16.8199 12.2678 16.03 12.5747C15.213 12.8928 14.52 13.3179 13.829 14.0078C13.139 14.6987 12.714 15.3918 12.397 16.2087C12.089 16.9988 11.879 17.9019 11.819 19.2239C11.759 20.5488 11.744 20.9717 11.744 24.3457C11.744 27.7188 11.759 28.1418 11.819 29.4668C11.879 30.7898 12.089 31.6929 12.397 32.4827C12.714 33.2998 13.139 33.9927 13.829 34.6829C14.52 35.3738 15.213 35.7988 16.03 36.1157C16.8199 36.4229 17.723 36.6328 19.045 36.6929C20.37 36.7537 20.793 36.7678 24.167 36.7678C27.54 36.7678 27.963 36.7537 29.288 36.6929C30.611 36.6328 31.514 36.4229 32.304 36.1157C33.121 35.7988 33.814 35.3738 34.504 34.6829C35.1949 33.9927 35.62 33.2998 35.937 32.4827C36.244 31.6929 36.454 30.7898 36.514 29.4668C36.575 28.1418 36.589 27.7188 36.589 24.3457C36.589 20.9717 36.575 20.5488 36.514 19.2239C36.454 17.9019 36.244 16.9988 35.937 16.2087C35.62 15.3918 35.1949 14.6987 34.504 14.0078C33.814 13.3179 33.121 12.8928 32.304 12.5747C31.514 12.2678 30.611 12.0579 29.288 11.9978C27.963 11.9377 27.54 11.9229 24.167 11.9229Z" fill="white"/>
<path d="M24.167 17.9668C20.644 17.9668 17.788 20.8228 17.788 24.3457C17.788 27.8687 20.644 30.7249 24.167 30.7249C27.6899 30.7249 30.546 27.8687 30.546 24.3457C30.546 20.8228 27.6899 17.9668 24.167 17.9668ZM24.167 28.4858C21.88 28.4858 20.026 26.6318 20.026 24.3457C20.026 22.0588 21.88 20.2048 24.167 20.2048C26.454 20.2048 28.307 22.0588 28.307 24.3457C28.307 26.6318 26.454 28.4858 24.167 28.4858Z" fill="white"/>
<path d="M32.2889 17.7141C32.2889 18.5381 31.621 19.2051 30.798 19.2051C29.974 19.2051 29.307 18.5381 29.307 17.7141C29.307 16.8911 29.974 16.2241 30.798 16.2241C31.621 16.2241 32.2889 16.8911 32.2889 17.7141Z" fill="white"/>
</svg>
