<svg width="58" height="56" viewBox="0 0 58 56" fill="none" xmlns="http://www.w3.org/2000/svg">
<path d="M1.30859 52.6443V42.2015C1.3457 42.1443 1.39355 42.0921 1.4165 42.0291C1.90771 40.6873 2.83252 40.0301 4.25049 40.0223C4.5376 40.0203 4.82373 40.0223 5.01562 40.0223V37.3875C5.01562 35.1234 5.03662 32.8592 5.00635 30.5965C4.9917 29.4944 5.10156 28.4651 5.99365 27.7073C5.94531 27.6463 5.9375 27.6282 5.92334 27.6185C5.8335 27.5574 5.74365 27.4974 5.65234 27.4393C3.54053 26.0892 2.18945 24.1902 1.57031 21.7674C1.46729 21.3675 1.39551 20.9593 1.30859 20.5545V18.5965C1.34033 18.5145 1.38965 18.4354 1.40137 18.3514C1.73975 15.9774 2.8374 14.0262 4.6626 12.4803C4.75244 12.4051 4.88135 12.3763 4.99268 12.3265C4.47168 12.1751 4.07031 12.1985 3.68262 12.1341C2.39746 11.9222 1.68066 11.0862 1.30859 9.89435V3.25812C1.87256 1.56036 3.08545 0.941224 4.82031 1.02033C6.4126 1.09113 8.01074 1.03546 9.60547 1.03546C23.1284 1.03546 36.6514 1.03449 50.1743 1.03644C52.1934 1.03644 53.2954 2.14728 53.2964 4.16925C53.2983 5.67413 53.2544 7.18048 53.3086 8.68243C53.3657 10.2791 52.8633 11.4891 51.2866 12.0682C51.6196 13.9153 51.3374 14.5555 49.7764 15.6502C49.6553 15.7352 49.5957 15.9793 49.5957 16.1502C49.5835 18.4525 49.5913 20.7542 49.5825 23.0574C49.5815 23.3401 49.6455 23.5003 49.9277 23.6395C50.8013 24.0735 51.3003 24.8104 51.4106 25.7752C51.4536 26.1605 51.3833 26.5584 51.3623 27.0193C51.5625 27.0193 51.7563 27.0184 51.9507 27.0203C52.7847 27.0272 53.6216 26.9905 54.4507 27.0521C55.9243 27.1634 56.9907 28.3192 56.9985 29.8001C57.0137 32.9002 57.0146 36.0003 56.9976 39.1004C56.9897 40.6551 55.7866 41.8372 54.2324 41.8734C53.8804 41.8812 53.5293 41.8743 53.1714 41.8743C53.2197 42.2391 53.2896 42.5252 53.2905 42.8123C53.2983 45.9124 53.3086 49.0115 53.2886 52.1111C53.2803 53.3851 52.4536 54.4402 51.2515 54.7542C50.8896 54.8494 50.4995 54.8621 50.1216 54.8631C34.9126 54.8685 19.7036 54.8675 4.49463 54.8665C4.27734 54.8665 4.05859 54.8655 3.84229 54.8431C2.73242 54.7322 1.96875 54.1434 1.51855 53.1321C1.44629 52.9705 1.37842 52.8074 1.30859 52.6443ZM47.7036 15.8802H47.0566C35.0244 15.8802 22.9917 15.8802 10.9595 15.8812C10.7773 15.8812 10.5967 15.8782 10.4155 15.8875C8.20361 15.9954 6.56738 18.0184 6.93652 20.1854C7.2666 22.1204 8.75928 23.2991 10.8975 23.3001C22.9653 23.3011 35.0347 23.3011 47.1035 23.2991C47.2954 23.2991 47.4883 23.2835 47.7036 23.2733V15.8802ZM12.4644 52.9734H42.1167V41.9124H12.4644V52.9734ZM14.3525 2.92218V10.2752H40.2383V2.92218H14.3525ZM29.1997 27.0193C35.5073 27.0193 41.8154 27.0203 48.1245 27.0184C48.3594 27.0184 48.5986 27.0242 48.8286 26.9832C49.3057 26.8983 49.5576 26.5682 49.5674 26.1082C49.5786 25.6722 49.3535 25.3323 48.9087 25.2254C48.6484 25.1634 48.3706 25.1614 48.1006 25.1614C35.7915 25.1585 23.4834 25.1595 11.1753 25.1585C10.8857 25.1585 10.5947 25.1561 10.3057 25.1424C6.39746 24.9564 3.87744 20.8665 5.52734 17.3182C6.56152 15.0931 8.38672 14.0291 10.8296 14.0281C23.3374 14.0262 35.8457 14.0272 48.3525 14.0272C49.1274 14.0272 49.5757 13.6863 49.5796 13.1043C49.5835 12.5223 49.1343 12.1751 48.3633 12.1751C35.7827 12.1741 23.2026 12.1653 10.6226 12.1785C5.44238 12.1844 1.87549 17.2391 3.59668 22.0892C4.66846 25.1092 7.44238 27.0135 10.8184 27.0174C16.9453 27.0252 23.0728 27.0193 29.1997 27.0193ZM46.7666 28.9295H15.2686V39.9813H46.7666V28.9295ZM48.6636 40.0223C50.4497 40.0223 52.1846 40.0233 53.9204 40.0213C54.8413 40.0203 55.1494 39.7073 55.1504 38.7733C55.1514 35.8934 55.1514 33.0125 55.1504 30.1321C55.1494 29.1893 54.8574 28.8875 53.9277 28.8841C52.3516 28.8792 50.7754 28.8812 49.1997 28.8841C49.0264 28.8851 48.8535 28.9095 48.6636 28.9232V40.0223ZM13.3574 28.8934C11.4585 28.8934 9.61133 28.8802 7.76562 28.9022C7.22852 28.9085 6.91553 29.2654 6.87744 29.8143C6.85449 30.1385 6.87061 30.4661 6.87061 30.7923C6.87061 33.4734 6.86865 36.1541 6.87158 38.8362C6.87256 39.5775 7.17334 40.0032 7.78662 40.0091C9.6167 40.0281 11.4453 40.0081 13.2744 40.0003C13.3013 40.0003 13.3286 39.9573 13.3574 39.9324V28.8934ZM8.69336 10.3182V2.91534C7.09229 2.91534 5.52246 2.89728 3.95361 2.92609C3.47266 2.93536 3.17139 3.32941 3.16748 3.86749C3.15674 5.69513 3.1543 7.52423 3.16846 9.35236C3.17334 9.93536 3.54346 10.3055 4.13037 10.3123C5.63037 10.3304 7.13135 10.3182 8.69336 10.3182ZM6.83057 52.9925V41.8753C6.6123 41.8753 6.43262 41.8753 6.25342 41.8753C5.5293 41.8763 4.80371 41.8592 4.07959 41.8831C3.53467 41.9012 3.19141 42.2723 3.1665 42.8343C3.14941 43.2503 3.16162 43.6673 3.16162 44.0843C3.16162 46.6751 3.16064 49.2664 3.16357 51.8572C3.16357 52.5555 3.43262 52.9603 3.99463 52.9822C4.93066 53.0193 5.86963 52.9925 6.83057 52.9925ZM47.7627 41.8782V52.9852C48.7485 52.9852 49.7046 53.0174 50.6577 52.9725C51.1626 52.9495 51.4004 52.5574 51.4336 52.0755C51.4595 51.6971 51.4424 51.3152 51.4424 50.9354C51.4424 48.3084 51.4443 45.6824 51.4414 43.0565C51.4404 42.3162 51.1357 41.9031 50.5244 41.8851C49.6216 41.8582 48.7173 41.8782 47.7627 41.8782ZM45.9214 2.91534V10.3152C47.4883 10.3152 49.0063 10.3304 50.5244 10.3084C51.0513 10.3001 51.4224 9.93536 51.4287 9.40509C51.4507 7.5423 51.4497 5.67706 51.4307 3.81427C51.4253 3.33429 51.1523 2.93829 50.6465 2.92706C49.0786 2.89435 47.5083 2.91534 45.9214 2.91534ZM10.5435 52.9754V41.9212H8.7666V52.9754H10.5435ZM45.8276 52.9764V41.9061H44.0474V52.9764H45.8276ZM42.1846 2.9173V10.2972H43.9634V2.9173H42.1846ZM10.6294 2.92413V10.2855H12.4033V2.92413H10.6294Z" fill="#CB2026" stroke="#CB2026"/>
<path d="M27.2782 51.2132C24.9623 51.1253 22.6786 50.9295 20.5091 50.0565C20.0101 49.8563 19.5194 49.5985 19.0863 49.2826C17.6415 48.2274 17.6541 46.6463 19.1053 45.5775C20.0853 44.8553 21.2245 44.4872 22.3993 44.2435C26.0003 43.4925 29.5921 43.5042 33.1463 44.5003C33.9173 44.7162 34.6834 45.0633 35.3582 45.4955C36.9994 46.5453 36.9945 48.2792 35.3851 49.3866C34.0545 50.3026 32.5155 50.6605 30.9515 50.8783C29.7352 51.0472 28.5033 51.1063 27.2782 51.2132ZM26.4823 45.5575C25.6815 45.6712 24.0794 45.8334 22.5072 46.1493C21.7103 46.3094 20.9461 46.7025 20.2093 47.0736C19.7625 47.2982 19.7855 47.5653 20.2206 47.8353C20.5863 48.0624 20.9784 48.2684 21.3851 48.4042C24.7342 49.5223 28.1444 49.5282 31.5702 48.8656C32.3773 48.7093 33.1615 48.3944 33.9295 48.0882C34.2245 47.9715 34.4461 47.6742 34.7025 47.4603C34.4403 47.2303 34.1996 46.9706 33.9115 46.7792C33.6751 46.6224 33.3895 46.5335 33.1175 46.4374C31.2313 45.7713 29.2694 45.6166 26.4823 45.5575Z" fill="#CB2026" stroke="#CB2026"/>
<path d="M31.0077 38.1672C27.4198 38.1672 23.831 38.1672 20.2431 38.1663C19.2387 38.1663 18.9408 37.8713 18.9398 36.8772C18.9389 35.2283 18.9369 33.5784 18.9408 31.9294C18.9428 31.0623 19.2518 30.7444 20.1161 30.7444C27.3837 30.7415 34.6508 30.7415 41.9179 30.7444C42.7807 30.7444 43.079 31.0593 43.08 31.9392C43.0819 33.6062 43.0819 35.2732 43.08 36.9402C43.079 37.8601 42.767 38.1663 41.828 38.1663C38.2211 38.1682 34.6151 38.1672 31.0077 38.1672ZM20.8251 36.2712H41.2001V32.6443H20.8251V36.2712Z" fill="#CB2026" stroke="#CB2026"/>
</svg>
