<svg width="60" height="60" viewBox="0 0 60 60" fill="none" xmlns="http://www.w3.org/2000/svg">
<path d="M59.7872 39.9121V40.8408C59.3252 41.8452 58.5279 42.147 57.4512 42.1338C53.9541 42.0899 50.4571 42.1172 46.96 42.1172H46.2671C46.4131 42.4668 46.522 42.73 46.6329 42.9922C48.604 47.624 50.5743 52.2578 52.5508 56.8882C52.8033 57.478 53.0039 58.0928 52.6172 58.6538C52.3482 59.043 51.9112 59.3159 51.5489 59.6421H50.6211C49.8902 59.3101 49.5088 58.7071 49.2159 57.9829C48.5591 56.354 47.837 54.752 47.168 53.127C47.0298 52.7901 46.8692 52.6582 46.4981 52.669C45.5899 52.6968 44.6812 52.6782 43.772 52.6782C33.795 52.6782 23.8179 52.6831 13.8409 52.6641C13.3282 52.6631 13.107 52.8252 12.9219 53.2842C12.2872 54.8589 11.5821 56.4072 10.9493 57.9829C10.6582 58.708 10.2749 59.3101 9.54497 59.6421H8.61625C7.25981 58.8281 7.05913 58.2051 7.68803 56.7271C9.67485 52.0542 11.6641 47.3828 13.6519 42.711C13.7251 42.5391 13.7862 42.3609 13.8799 42.1172H13.188C9.59086 42.1172 5.99516 42.1192 2.39799 42.1162C1.17485 42.1162 0.375043 41.416 0.381879 40.3653C0.389204 39.3159 1.18413 38.6411 2.41997 38.6362C2.89409 38.6338 3.36723 38.6362 3.85893 38.6362V37.8491C3.85893 29.4942 3.86088 21.1392 3.85698 12.7852C3.856 11.5152 4.12309 10.3311 4.90727 9.30324C6.03422 7.82326 7.55717 7.18215 9.3892 7.1841C14.3199 7.18703 19.25 7.18508 24.1812 7.18508H24.8628C24.8628 6.54787 24.8492 6.00588 24.8653 5.46486C24.9922 1.29787 29.2178 -1.08885 32.7959 1.01906C34.5 2.02297 35.2613 3.62209 35.3018 5.57619C35.313 6.10695 35.3042 6.63918 35.3042 7.18508H36.0953C40.9668 7.18508 45.8399 7.18508 50.7129 7.18508C51.6299 7.18508 52.5249 7.29982 53.3521 7.72805C55.378 8.77492 56.3042 10.479 56.3052 12.7212C56.3081 21.1138 56.3062 29.5078 56.3062 37.9009V38.627C57.6392 38.6802 59.1031 38.294 59.7872 39.9121ZM7.33989 38.5943H35.42C35.42 36.9112 35.4161 35.2691 35.4219 33.6279C35.4258 32.377 36.1138 31.6768 37.3531 31.6748C40.6983 31.669 44.043 31.669 47.3882 31.6738C48.6602 31.6758 49.3389 32.3711 49.3428 33.6621C49.3482 35.1309 49.3443 36.6011 49.3443 38.0708C49.3443 38.2529 49.3443 38.4361 49.3443 38.6011H52.8252V37.9409C52.8252 29.586 52.8262 21.232 52.8252 12.8779C52.8252 11.2769 52.2178 10.667 50.626 10.667C36.9371 10.666 23.2471 10.666 9.55815 10.667C7.95122 10.667 7.33989 11.271 7.33989 12.8589C7.33989 21.2129 7.33989 29.5669 7.33989 37.9209V38.5943ZM45.479 49.1792C44.4913 46.856 43.5479 44.6162 42.5708 42.3911C42.5049 42.2422 42.1802 42.1289 41.9742 42.1289C34.0469 42.1153 26.1192 42.1211 18.191 42.106C17.7872 42.105 17.625 42.2481 17.48 42.5952C16.6309 44.625 15.7588 46.646 14.897 48.6709C14.8321 48.8252 14.7881 48.9878 14.7242 49.1792H45.479ZM38.9131 38.5991H45.8208V35.2012H38.9131V38.5991ZM31.815 7.16311C31.815 6.5049 31.8453 5.90822 31.8072 5.31496C31.751 4.44094 31.0469 3.76711 30.1919 3.71096C29.3418 3.6548 28.5142 4.23781 28.399 5.09914C28.3081 5.77199 28.3809 6.46584 28.3809 7.16311H31.815Z" fill="#CB2026"/>
<path d="M30.0718 21.1113C24.4058 21.1113 18.7403 21.1123 13.0743 21.1113C12.8609 21.1113 12.647 21.1206 12.4361 21.1015C11.5142 21.0195 10.8189 20.2636 10.8252 19.3603C10.8311 18.4555 11.5332 17.7134 12.4581 17.6396C12.6499 17.6235 12.8453 17.6303 13.0381 17.6303C24.4082 17.6303 35.7789 17.6303 47.1499 17.6303C47.2461 17.6303 47.3428 17.6294 47.44 17.6303C48.566 17.6474 49.3472 18.3667 49.3399 19.3823C49.333 20.3955 48.5533 21.1094 47.417 21.1094C41.6348 21.1142 35.854 21.1113 30.0718 21.1113Z" fill="#CB2026"/>
<path d="M30.1411 24.5922C35.8071 24.5922 41.4731 24.5922 47.1392 24.5937C47.3521 24.5937 47.5659 24.5844 47.7759 24.6073C48.668 24.7064 49.3398 25.4535 49.3398 26.3334C49.3398 27.2143 48.667 27.9613 47.7759 28.0595C47.5649 28.0824 47.3511 28.0736 47.1382 28.0736C35.7671 28.0746 24.397 28.0746 13.0259 28.0746C11.6348 28.0746 10.8252 27.4325 10.8252 26.3324C10.8262 25.2323 11.6348 24.5922 13.0269 24.5922C18.7319 24.5922 24.436 24.5922 30.1411 24.5922Z" fill="#CB2026"/>
<path d="M21.2634 35.1539C18.4011 35.1539 15.5402 35.1632 12.6784 35.15C11.341 35.1442 10.4924 33.9669 10.945 32.7901C11.2072 32.11 11.8244 31.6842 12.6213 31.6769C13.9362 31.6642 15.2512 31.673 16.5661 31.672C21.0134 31.672 25.4611 31.6681 29.9084 31.6749C31.2912 31.6769 32.1603 32.839 31.6994 34.0362C31.425 34.7482 30.7932 35.151 29.9074 35.152C27.0261 35.1573 24.1442 35.1539 21.2634 35.1539Z" fill="#CB2026"/>
</svg>
