<?xml version="1.0" encoding="UTF-8" standalone="no" ?>
<!DOCTYPE svg PUBLIC "-//W3C//DTD SVG 1.1//EN" "http://www.w3.org/Graphics/SVG/1.1/DTD/svg11.dtd">
<svg xmlns="http://www.w3.org/2000/svg" xmlns:xlink="http://www.w3.org/1999/xlink" version="1.1" width="1080" height="1080" viewBox="0 0 1080 1080" xml:space="preserve">
<desc>Created with Fabric.js 5.2.4</desc>
<defs>
</defs>
<g transform="matrix(1 0 0 1 540 540)" id="b221ebcc-8e72-448a-9d92-6205ebd054c2"  >
<rect style="stroke: none; stroke-width: 1; stroke-dasharray: none; stroke-linecap: butt; stroke-dashoffset: 0; stroke-linejoin: miter; stroke-miterlimit: 4; fill: rgb(255,255,255); fill-rule: nonzero; opacity: 1; visibility: hidden;" vector-effect="non-scaling-stroke"  x="-540" y="-540" rx="0" ry="0" width="1080" height="1080" />
</g>
<g transform="matrix(1 0 0 1 540 540)" id="fe542995-578e-4673-836b-54aeb9ec9d93"  >
</g>
<g transform="matrix(2.03 0 0 2.03 540 540)"  >
<g style=""   >
		<g transform="matrix(1 0 0 1 -133.49 9.74)"  >
<path style="stroke: none; stroke-width: 1; stroke-dasharray: none; stroke-linecap: butt; stroke-dashoffset: 0; stroke-linejoin: miter; stroke-miterlimit: 4; fill: rgb(0,0,0); fill-rule: nonzero; opacity: 1;" vector-effect="non-scaling-stroke"  transform=" translate(-1501.36, 255.17)" d="M 1531.38 -257.03 C 1531.38 -256.59999999999997 1531.38 -256.04999999999995 1531.38 -255.36999999999998 C 1531.38 -254.68999999999997 1531.2900000000002 -253.82999999999998 1531.1200000000001 -252.80999999999997 L 1480.0500000000002 -252.80999999999997 C 1480.3000000000002 -247.85999999999999 1481.0700000000002 -243.65999999999997 1482.3500000000001 -240.2 C 1483.63 -236.74 1485.2600000000002 -233.95 1487.2600000000002 -231.82 C 1489.2600000000002 -229.69 1491.5400000000002 -228.15 1494.0900000000001 -227.20999999999998 C 1496.64 -226.26999999999998 1499.2800000000002 -225.79999999999998 1502.0000000000002 -225.79999999999998 C 1506.7600000000002 -225.79999999999998 1511.0400000000002 -227.20999999999998 1514.8200000000002 -230.01999999999998 C 1518.6100000000001 -232.83999999999997 1521.0900000000001 -237.05999999999997 1522.2900000000002 -242.68999999999997 L 1530.4800000000002 -242.68999999999997 C 1529.7100000000003 -238.75999999999996 1528.3900000000003 -235.34999999999997 1526.5200000000002 -232.44999999999996 C 1524.6500000000003 -229.54999999999995 1522.4100000000003 -227.13999999999996 1519.8100000000002 -225.21999999999997 C 1517.2100000000003 -223.29999999999998 1514.3400000000001 -221.86999999999998 1511.1900000000003 -220.92999999999998 C 1508.0400000000002 -219.98999999999998 1504.7600000000002 -219.51999999999998 1501.3600000000004 -219.51999999999998 C 1497.1900000000003 -219.51999999999998 1493.2700000000004 -220.26999999999998 1489.6100000000004 -221.76 C 1485.9500000000003 -223.25 1482.7500000000005 -225.47 1480.0300000000004 -228.42 C 1477.3100000000004 -231.35999999999999 1475.1800000000005 -235.04999999999998 1473.6400000000003 -239.48999999999998 C 1472.1100000000004 -243.92999999999998 1471.3400000000004 -249.13 1471.3400000000004 -255.10999999999999 C 1471.3400000000004 -260.57 1472.1300000000003 -265.5 1473.7000000000003 -269.89 C 1475.2800000000002 -274.28 1477.4700000000003 -278.03999999999996 1480.2800000000002 -281.15 C 1483.0900000000001 -284.26 1486.4100000000003 -286.65 1490.2400000000002 -288.32 C 1494.0700000000002 -289.98 1498.2000000000003 -290.82 1502.6300000000003 -290.82 C 1507.4000000000003 -290.82 1511.5700000000004 -289.94 1515.1500000000003 -288.2 C 1518.7300000000002 -286.45 1521.7100000000003 -284.03999999999996 1524.0900000000004 -280.96999999999997 C 1526.4700000000005 -277.9 1528.2800000000004 -274.30999999999995 1529.5200000000004 -270.21999999999997 C 1530.76 -266.11 1531.38 -261.72 1531.38 -257.03 z M 1502.51 -284.55 C 1499.7 -284.55 1497.02 -284.01 1494.47 -282.94 C 1491.92 -281.87 1489.6200000000001 -280.28 1487.58 -278.18 C 1485.54 -276.08 1483.84 -273.44 1482.48 -270.27 C 1481.1200000000001 -267.09999999999997 1480.31 -263.37 1480.06 -259.08 L 1523.45 -259.08 C 1523.02 -267.83 1520.8500000000001 -274.26 1516.94 -278.38 C 1513.02 -282.49 1508.21 -284.55 1502.51 -284.55 z" stroke-linecap="round" />
</g>
		<g transform="matrix(1 0 0 1 -69.69 8.97)"  >
<path style="stroke: none; stroke-width: 1; stroke-dasharray: none; stroke-linecap: butt; stroke-dashoffset: 0; stroke-linejoin: miter; stroke-miterlimit: 4; fill: rgb(0,0,0); fill-rule: nonzero; opacity: 1;" vector-effect="non-scaling-stroke"  transform=" translate(-1565.16, 255.94)" d="M 1575.41 -290.56 C 1577.03 -290.56 1578.3500000000001 -290.39 1579.38 -290.05 L 1579.38 -283.78000000000003 C 1576.48 -284.04 1573.7700000000002 -283.74 1571.25 -282.88000000000005 C 1568.73 -282.03000000000003 1566.56 -280.62000000000006 1564.72 -278.66 C 1562.88 -276.70000000000005 1561.46 -274.12 1560.43 -270.92 C 1559.41 -267.72 1558.89 -263.86 1558.89 -259.34000000000003 L 1558.89 -221.32000000000002 L 1550.95 -221.32000000000002 L 1550.95 -289.03000000000003 L 1558.89 -289.03000000000003 L 1558.89 -276.74 L 1563.75 -285.44 C 1565.29 -287.06 1567.06 -288.32 1569.06 -289.21999999999997 C 1571.08 -290.11 1573.19 -290.56 1575.41 -290.56 z" stroke-linecap="round" />
</g>
		<g transform="matrix(1 0 0 1 -36.02 9.75)"  >
<path style="stroke: none; stroke-width: 1; stroke-dasharray: none; stroke-linecap: butt; stroke-dashoffset: 0; stroke-linejoin: miter; stroke-miterlimit: 4; fill: rgb(0,0,0); fill-rule: nonzero; opacity: 1;" vector-effect="non-scaling-stroke"  transform=" translate(-1598.83, 255.16)" d="M 1594.86 -221.31 L 1594.86 -289.02 L 1602.8 -289.02 L 1602.8 -221.31 L 1594.86 -221.31 z" stroke-linecap="round" />
</g>
		<g transform="matrix(1 0 0 1 0.38 2.96)"  >
<path style="stroke: none; stroke-width: 1; stroke-dasharray: none; stroke-linecap: butt; stroke-dashoffset: 0; stroke-linejoin: miter; stroke-miterlimit: 4; fill: rgb(0,0,0); fill-rule: nonzero; opacity: 1;" vector-effect="non-scaling-stroke"  transform=" translate(-1635.24, 261.96)" d="M 1637.1 -239.87 C 1637.1 -238.42000000000002 1637.1 -237.29 1637.1 -236.48000000000002 C 1637.1 -235.67000000000002 1637.1399999999999 -234.79000000000002 1637.23 -233.86 C 1637.49 -230.62 1638.47 -228.48000000000002 1640.17 -227.46 C 1641.88 -226.44 1645.03 -226.22 1649.64 -226.82000000000002 L 1649.64 -220.93000000000004 C 1648.2700000000002 -220.67000000000004 1646.91 -220.50000000000003 1645.5400000000002 -220.42000000000004 C 1644.1700000000003 -220.34000000000003 1642.8100000000002 -220.29000000000005 1641.4400000000003 -220.29000000000005 C 1637.6000000000004 -220.29000000000005 1634.7000000000003 -221.14000000000004 1632.7400000000002 -222.85000000000005 C 1630.7800000000002 -224.56000000000006 1629.6200000000003 -227.29000000000005 1629.2800000000002 -231.04000000000005 C 1629.1900000000003 -232.23000000000005 1629.15 -233.49000000000004 1629.15 -234.82000000000005 C 1629.15 -236.14000000000004 1629.15 -237.78000000000006 1629.15 -239.75000000000006 L 1629.15 -282.37000000000006 L 1620.45 -282.37000000000006 L 1620.45 -288.64000000000004 L 1629.15 -288.64000000000004 L 1629.15 -303.62000000000006 L 1637.0900000000001 -303.62000000000006 L 1637.0900000000001 -288.64000000000004 L 1650.0200000000002 -288.64000000000004 L 1650.0200000000002 -282.37000000000006 L 1637.0900000000001 -282.37000000000006 L 1637.0900000000001 -239.87 z" stroke-linecap="round" />
</g>
		<g transform="matrix(1 0 0 1 49.23 8.92)"  >
<path style="stroke: none; stroke-width: 1; stroke-dasharray: none; stroke-linecap: butt; stroke-dashoffset: 0; stroke-linejoin: miter; stroke-miterlimit: 4; fill: rgb(192,13,14); fill-rule: nonzero; opacity: 1;" vector-effect="non-scaling-stroke"  transform=" translate(-1684.08, 256)" d="M 1695.09 -290.69 C 1696.97 -290.69 1698.5 -290.39 1699.6999999999998 -289.79 L 1699.6999999999998 -281.47 C 1696.7999999999997 -281.64000000000004 1694.11 -281.34000000000003 1691.6399999999999 -280.57000000000005 C 1689.1599999999999 -279.80000000000007 1687.03 -278.5400000000001 1685.2399999999998 -276.7900000000001 C 1683.4499999999998 -275.0400000000001 1682.0399999999997 -272.7600000000001 1681.0199999999998 -269.94000000000005 C 1679.9999999999998 -267.12000000000006 1679.4799999999998 -263.80000000000007 1679.4799999999998 -259.96000000000004 L 1679.4799999999998 -221.30000000000004 L 1668.4699999999998 -221.30000000000004 L 1668.4699999999998 -289.14000000000004 L 1679.4799999999998 -289.14000000000004 L 1679.4799999999998 -278.52000000000004 L 1685.62 -287.61 C 1688.6 -289.67 1691.76 -290.69 1695.09 -290.69 z" stroke-linecap="round" />
</g>
		<g transform="matrix(1 0 0 1 107.46 9.67)"  >
<path style="stroke: none; stroke-width: 1; stroke-dasharray: none; stroke-linecap: butt; stroke-dashoffset: 0; stroke-linejoin: miter; stroke-miterlimit: 4; fill: rgb(192,13,14); fill-rule: nonzero; opacity: 1;" vector-effect="non-scaling-stroke"  transform=" translate(-1742.32, 255.24)" d="M 1742.32 -290.95 C 1748.12 -290.95 1753.1399999999999 -289.99 1757.36 -288.07 C 1761.58 -286.15 1765.06 -283.57 1767.79 -280.33 C 1770.52 -277.09 1772.57 -273.28999999999996 1773.93 -268.94 C 1775.29 -264.59 1775.98 -260.02 1775.98 -255.24 C 1775.98 -250.46 1775.3 -245.92000000000002 1773.93 -241.61 C 1772.5600000000002 -237.3 1770.52 -233.5 1767.79 -230.22000000000003 C 1765.06 -226.93000000000004 1761.58 -224.33000000000004 1757.36 -222.41000000000003 C 1753.1399999999999 -220.49000000000004 1748.12 -219.53000000000003 1742.32 -219.53000000000003 C 1736.6 -219.53000000000003 1731.61 -220.49000000000004 1727.34 -222.41000000000003 C 1723.07 -224.33 1719.57 -226.93000000000004 1716.84 -230.22000000000003 C 1714.11 -233.50000000000003 1712.06 -237.30000000000004 1710.6999999999998 -241.61 C 1709.33 -245.92000000000002 1708.6499999999999 -250.46 1708.6499999999999 -255.24 C 1708.6499999999999 -260.02 1709.33 -264.58 1710.6999999999998 -268.94 C 1712.0599999999997 -273.29 1714.11 -277.09 1716.84 -280.33 C 1719.57 -283.57 1723.07 -286.15 1727.34 -288.07 C 1731.61 -289.99 1736.6 -290.95 1742.32 -290.95 z M 1742.32 -227.97 C 1745.73 -227.97 1748.78 -228.65 1751.47 -230.02 C 1754.16 -231.38000000000002 1756.42 -233.26000000000002 1758.25 -235.65 C 1760.08 -238.04 1761.49 -240.92000000000002 1762.47 -244.29000000000002 C 1763.45 -247.66000000000003 1763.94 -251.31000000000003 1763.94 -255.23000000000002 C 1763.94 -259.24 1763.45 -262.91 1762.47 -266.24 C 1761.49 -269.57 1760.08 -272.45 1758.25 -274.88 C 1756.41 -277.31 1754.15 -279.19 1751.47 -280.51 C 1748.78 -281.83 1745.73 -282.49 1742.32 -282.49 C 1738.9099999999999 -282.49 1735.86 -281.83 1733.1699999999998 -280.51 C 1730.4799999999998 -279.19 1728.2199999999998 -277.31 1726.3899999999999 -274.88 C 1724.55 -272.45 1723.1499999999999 -269.57 1722.1699999999998 -266.24 C 1721.1899999999998 -262.91 1720.6999999999998 -259.24 1720.6999999999998 -255.23000000000002 C 1720.6999999999998 -251.3 1721.1899999999998 -247.66000000000003 1722.1699999999998 -244.29000000000002 C 1723.1499999999999 -240.92000000000002 1724.56 -238.04000000000002 1726.3899999999999 -235.65000000000003 C 1728.2199999999998 -233.26000000000005 1730.4899999999998 -231.38000000000002 1733.1699999999998 -230.02000000000004 C 1735.85 -228.65 1738.9 -227.97 1742.32 -227.97 z" stroke-linecap="round" />
</g>
		<g transform="matrix(1 0 0 1 187.59 9.67)"  >
<path style="stroke: none; stroke-width: 1; stroke-dasharray: none; stroke-linecap: butt; stroke-dashoffset: 0; stroke-linejoin: miter; stroke-miterlimit: 4; fill: rgb(192,13,14); fill-rule: nonzero; opacity: 1;" vector-effect="non-scaling-stroke"  transform=" translate(-1822.45, 255.24)" d="M 1822.45 -290.95 C 1828.25 -290.95 1833.27 -289.99 1837.49 -288.07 C 1841.71 -286.15 1845.19 -283.57 1847.92 -280.33 C 1850.65 -277.09 1852.7 -273.28999999999996 1854.0600000000002 -268.94 C 1855.42 -264.59 1856.1100000000001 -260.02 1856.1100000000001 -255.24 C 1856.1100000000001 -250.46 1855.43 -245.92000000000002 1854.0600000000002 -241.61 C 1852.6900000000003 -237.3 1850.65 -233.5 1847.92 -230.22000000000003 C 1845.19 -226.93000000000004 1841.71 -224.33000000000004 1837.49 -222.41000000000003 C 1833.27 -220.49000000000004 1828.25 -219.53000000000003 1822.45 -219.53000000000003 C 1816.73 -219.53000000000003 1811.74 -220.49000000000004 1807.47 -222.41000000000003 C 1803.2 -224.33 1799.7 -226.93000000000004 1796.97 -230.22000000000003 C 1794.24 -233.50000000000003 1792.19 -237.30000000000004 1790.83 -241.61 C 1789.46 -245.92000000000002 1788.78 -250.46 1788.78 -255.24 C 1788.78 -260.02 1789.46 -264.58 1790.83 -268.94 C 1792.1899999999998 -273.29 1794.24 -277.09 1796.97 -280.33 C 1799.7 -283.57 1803.2 -286.15 1807.47 -288.07 C 1811.74 -289.99 1816.73 -290.95 1822.45 -290.95 z M 1822.45 -227.97 C 1825.8600000000001 -227.97 1828.91 -228.65 1831.6000000000001 -230.02 C 1834.2900000000002 -231.38000000000002 1836.5500000000002 -233.26000000000002 1838.38 -235.65 C 1840.21 -238.04 1841.6200000000001 -240.92000000000002 1842.6000000000001 -244.29000000000002 C 1843.5800000000002 -247.66000000000003 1844.0700000000002 -251.31000000000003 1844.0700000000002 -255.23000000000002 C 1844.0700000000002 -259.24 1843.5800000000002 -262.91 1842.6000000000001 -266.24 C 1841.6200000000001 -269.57 1840.21 -272.45 1838.38 -274.88 C 1836.5400000000002 -277.31 1834.2800000000002 -279.19 1831.6000000000001 -280.51 C 1828.91 -281.83 1825.8600000000001 -282.49 1822.45 -282.49 C 1819.04 -282.49 1815.99 -281.83 1813.3 -280.51 C 1810.61 -279.19 1808.35 -277.31 1806.52 -274.88 C 1804.68 -272.45 1803.28 -269.57 1802.3 -266.24 C 1801.32 -262.91 1800.83 -259.24 1800.83 -255.23000000000002 C 1800.83 -251.3 1801.32 -247.66000000000003 1802.3 -244.29000000000002 C 1803.28 -240.92000000000002 1804.69 -238.04000000000002 1806.52 -235.65000000000003 C 1808.35 -233.26000000000005 1810.62 -231.38000000000002 1813.3 -230.02000000000004 C 1815.98 -228.65 1819.03 -227.97 1822.45 -227.97 z" stroke-linecap="round" />
</g>
		<g transform="matrix(1 0 0 1 249.16 2.58)"  >
<path style="stroke: none; stroke-width: 1; stroke-dasharray: none; stroke-linecap: butt; stroke-dashoffset: 0; stroke-linejoin: miter; stroke-miterlimit: 4; fill: rgb(192,13,14); fill-rule: nonzero; opacity: 1;" vector-effect="non-scaling-stroke"  transform=" translate(-1884.02, 262.34)" d="M 1887.73 -241.15 C 1887.73 -239.95000000000002 1887.73 -239.02 1887.73 -238.33 C 1887.73 -237.65 1887.77 -236.84 1887.8600000000001 -235.9 C 1888.1200000000001 -232.66 1889.0500000000002 -230.57 1890.68 -229.63 C 1892.3 -228.69 1895.29 -228.48 1899.64 -228.99 L 1899.64 -220.93 C 1898.0200000000002 -220.67000000000002 1896.44 -220.5 1894.9 -220.42000000000002 C 1893.3600000000001 -220.34 1891.8300000000002 -220.29000000000002 1890.2900000000002 -220.29000000000002 C 1886.0200000000002 -220.29000000000002 1882.8000000000002 -221.21 1880.63 -223.04000000000002 C 1878.45 -224.87000000000003 1877.19 -227.92000000000002 1876.8500000000001 -232.19000000000003 C 1876.7600000000002 -233.13000000000002 1876.72 -234.28000000000003 1876.72 -235.65000000000003 C 1876.72 -237.01000000000005 1876.72 -238.68000000000004 1876.72 -240.64000000000004 L 1876.72 -280.19000000000005 L 1867.63 -280.19000000000005 L 1867.63 -288.64000000000004 L 1876.72 -288.64000000000004 L 1876.72 -304.38000000000005 L 1887.73 -304.38000000000005 L 1887.73 -288.64000000000004 L 1900.4 -288.64000000000004 L 1900.4 -280.19000000000005 L 1887.73 -280.19000000000005 L 1887.73 -241.15 z" stroke-linecap="round" />
</g>
		<g transform="matrix(1 0 0 1 -36.02 -38.71)"  >
<path style="stroke: none; stroke-width: 1; stroke-dasharray: none; stroke-linecap: butt; stroke-dashoffset: 0; stroke-linejoin: miter; stroke-miterlimit: 4; fill: rgb(192,13,14); fill-rule: nonzero; opacity: 1;" vector-effect="non-scaling-stroke"  transform=" translate(-1598.83, 303.62)" d="M 1598.83 -310.31 C 1600.74 -310.31 1602.34 -309.67 1603.61 -308.4 C 1604.8899999999999 -307.12 1605.52 -305.53 1605.52 -303.62 C 1605.52 -301.81 1604.8799999999999 -300.24 1603.61 -298.92 C 1602.34 -297.59000000000003 1600.74 -296.93 1598.83 -296.93 C 1597.02 -296.93 1595.4499999999998 -297.59000000000003 1594.1299999999999 -298.92 C 1592.8 -300.25 1592.1399999999999 -301.81 1592.1399999999999 -303.62 C 1592.1399999999999 -305.53000000000003 1592.8 -307.13 1594.1299999999999 -308.4 C 1595.46 -309.68 1597.02 -310.31 1598.83 -310.31 z" stroke-linecap="round" />
</g>
		<g transform="matrix(1 0 0 1 -221.85 8.84)"  >
<path style="stroke: none; stroke-width: 1; stroke-dasharray: none; stroke-linecap: butt; stroke-dashoffset: 0; stroke-linejoin: miter; stroke-miterlimit: 4; fill: rgb(0,0,0); fill-rule: nonzero; opacity: 1;" vector-effect="non-scaling-stroke"  transform=" translate(-1413.01, 256.08)" d="M 1456.7 -270.58 L 1456.7 -221.30999999999997 L 1449.1100000000001 -221.30999999999997 L 1449.1100000000001 -268.51 C 1449.1100000000001 -272.96999999999997 1447.3000000000002 -277.01 1444.38 -279.93 C 1441.45 -282.85 1437.42 -284.66 1432.95 -284.66 C 1424.03 -284.66 1416.81 -277.43 1416.81 -268.52000000000004 L 1416.81 -221.32000000000005 L 1409.2 -221.32000000000005 L 1409.2 -268.52000000000004 C 1409.2 -272.98 1407.39 -277.02000000000004 1404.47 -279.94000000000005 C 1401.54 -282.86000000000007 1397.51 -284.6700000000001 1393.04 -284.6700000000001 C 1384.12 -284.6700000000001 1376.8999999999999 -277.44000000000005 1376.8999999999999 -268.5300000000001 L 1376.8999999999999 -221.3300000000001 L 1369.31 -221.3300000000001 L 1369.31 -270.6000000000001 C 1369.31 -281.7700000000001 1378.37 -290.8400000000001 1389.54 -290.8400000000001 L 1396.56 -290.8400000000001 C 1403.34 -290.8400000000001 1409.35 -287.49000000000007 1413 -282.37000000000006 C 1416.65 -287.49000000000007 1422.66 -290.8400000000001 1429.44 -290.8400000000001 L 1436.46 -290.8400000000001 C 1447.64 -290.82 1456.7 -281.75 1456.7 -270.58 z" stroke-linecap="round" />
</g>
</g>
</g>
</svg>