<svg width="106" height="80" viewBox="0 0 106 80" fill="none" xmlns="http://www.w3.org/2000/svg">
<path d="M91.084 33.1171C92.453 31.7471 94.678 31.7511 96.046 33.1182C97.416 34.4891 97.409 36.7181 96.047 38.0812L55.769 78.3582C54.399 79.7281 52.175 79.7251 50.807 78.3572C49.437 76.9861 49.444 74.7571 50.806 73.3951L91.084 33.1171ZM82.36 59.7081L96.047 73.3951C97.415 74.7621 97.416 76.9861 96.046 78.3572C94.678 79.7251 92.453 79.7281 91.084 78.3582L77.397 64.6711L82.36 59.7081ZM69.456 46.8041L64.493 51.7671L50.806 38.0812C49.438 36.7131 49.437 34.4891 50.807 33.1182C52.175 31.7511 54.399 31.7471 55.769 33.1171L69.456 46.8041ZM27.78 77.2012L14.76 55.5862C13.158 52.9261 9.34796 50.7731 6.24796 50.7731C0.715973 50.7731 0.0739746 48.7751 0.0739746 46.3362C0.0739746 43.8971 3.23096 42.3501 6.33398 42.3501H11.002C14.109 42.3501 17.917 44.5032 19.517 47.1592L24.626 55.6411C26.224 58.2941 28.148 58.0171 28.919 55.0161L41.474 6.13806C42.245 3.13916 45.383 0.704102 48.482 0.704102H100.185C103.281 0.704102 105.797 3.21814 105.797 6.31812V8.17017C105.797 11.2701 103.282 13.7842 100.179 13.7842C95.032 13.7842 97.788 8.81909 91.754 9.12708H55.023C51.914 9.12708 48.778 11.5602 48.007 14.5612L32.075 76.5801C31.305 79.5781 29.381 79.8591 27.78 77.2012Z" fill="white"/>
</svg>
