<svg width="683" height="130" viewBox="0 0 683 130" fill="none" xmlns="http://www.w3.org/2000/svg">
<g clip-path="url(#clip0_11_2)">
<path d="M313.06 54.9299V56.5899C313.042 57.4488 312.955 58.3049 312.8 59.1499H261.73C261.855 63.4429 262.62 67.6931 264 71.7599C265.064 74.854 266.737 77.7035 268.92 80.1399C270.799 82.1972 273.14 83.7775 275.75 84.7499C278.282 85.6872 280.961 86.1647 283.66 86.1599C288.281 86.2022 292.788 84.7189 296.48 81.9399C300.274 79.1199 302.764 74.8933 303.95 69.2599H312.14C311.472 72.8971 310.114 76.3729 308.14 79.4999C306.366 82.3037 304.091 84.7577 301.43 86.7399C298.849 88.6507 295.951 90.0926 292.87 90.9999C289.668 91.9562 286.342 92.438 283 92.4299C278.975 92.4562 274.983 91.6953 271.25 90.1899C267.604 88.7101 264.332 86.4387 261.67 83.5399C258.79 80.3336 256.613 76.5591 255.28 72.4599C253.663 67.4184 252.892 62.1435 253 56.8499C252.93 51.82 253.732 46.816 255.37 42.0599C256.818 37.9068 259.071 34.0803 262 30.7999C264.779 27.7179 268.19 25.2722 272 23.6299C275.914 21.953 280.133 21.1052 284.39 21.1399C288.706 21.0411 292.987 21.9376 296.9 23.7599C300.377 25.4594 303.415 27.9368 305.78 30.9999C308.235 34.2178 310.073 37.8626 311.2 41.7499C312.465 46.0279 313.092 50.469 313.06 54.9299ZM284.19 27.4099C281.442 27.4023 278.721 27.95 276.19 29.0199C273.594 30.1221 271.25 31.7417 269.3 33.7799C267.123 36.0787 265.391 38.7605 264.19 41.6899C262.742 45.2517 261.923 49.038 261.77 52.8799H305.16C304.734 44.1333 302.564 37.6999 298.65 33.5799C296.815 31.5859 294.576 30.0046 292.083 28.9409C289.59 27.8772 286.9 27.3553 284.19 27.4099Z" fill="#24385B"/>
<path d="M357.09 21.3901C358.442 21.3473 359.792 21.5194 361.09 21.9001V28.1801C358.351 27.9034 355.584 28.2067 352.97 29.0701C350.473 29.9094 348.227 31.3642 346.44 33.3C344.441 35.5119 342.961 38.1427 342.11 41.0001C341.009 44.7589 340.49 48.6641 340.57 52.5801V90.5801H332.64V22.9301H340.57V35.2201L345.44 26.5101C346.939 24.91 348.745 23.6279 350.75 22.7401C352.743 21.8424 354.905 21.3821 357.09 21.3901Z" fill="#24385B"/>
<path d="M376.54 90.6401V22.9301H384.48V90.6401H376.54Z" fill="#24385B"/>
<path d="M418.78 72.0801V75.4701C418.78 76.2801 418.78 77.1601 418.91 78.1001C419.163 81.3401 420.143 83.4734 421.85 84.5001C423.557 85.5267 426.713 85.7401 431.32 85.1401V91.0001C429.969 91.2569 428.603 91.4305 427.23 91.5201C425.86 91.6001 424.5 91.6401 423.13 91.6401C419.29 91.6401 416.39 90.7867 414.43 89.0801C412.47 87.3734 411.327 84.6501 411 80.9101C410.92 79.7201 410.87 78.4601 410.87 77.1401V29.5801H402.17V23.3101H410.87V8.31006H418.81V23.3101H431.74V29.5801H418.78V72.0801Z" fill="#24385B"/>
<path d="M476.76 21.26C478.346 21.1991 479.924 21.5072 481.37 22.16V30.48C478.651 30.2891 475.92 30.594 473.31 31.38C470.903 32.0997 468.706 33.3935 466.91 35.15C465.002 37.086 463.557 39.4275 462.68 42C461.595 45.2195 461.077 48.6032 461.15 52V90.64H450.15V22.8H461.15V33.42L467.29 24.34C470.054 22.3619 473.361 21.2862 476.76 21.26Z" fill="#24385B"/>
<path d="M524 21C529.149 20.8782 534.263 21.8602 539 23.88C543.017 25.6444 546.585 28.2897 549.44 31.62C552.233 34.9654 554.33 38.8342 555.61 43C556.969 47.4386 557.643 52.0582 557.61 56.7C557.647 61.319 556.972 65.9162 555.61 70.33C554.325 74.4905 552.24 78.3597 549.47 81.72C546.626 85.097 543.044 87.7759 539 89.55C529.368 93.3872 518.632 93.3872 509 89.55C504.944 87.7918 501.351 85.1187 498.5 81.74C495.727 78.3821 493.641 74.5122 492.36 70.35C490.976 65.9399 490.285 61.3419 490.31 56.72C490.293 52.0676 490.991 47.4402 492.38 43C493.646 38.8313 495.733 34.9584 498.52 31.61C501.385 28.277 504.968 25.6375 509 23.89C513.738 21.87 518.852 20.8847 524 21ZM524 84C527.076 84.0795 530.127 83.4243 532.899 82.0886C535.672 80.7529 538.085 78.7753 539.94 76.32C541.876 73.7297 543.307 70.7989 544.16 67.68C545.17 64.1219 545.668 60.4384 545.64 56.74C545.675 53.0214 545.177 49.317 544.16 45.74C543.286 42.6289 541.857 39.7018 539.94 37.1C538.156 34.7147 535.833 32.7855 533.16 31.47C530.284 30.1653 527.163 29.4904 524.005 29.4904C520.847 29.4904 517.726 30.1653 514.85 31.47C512.174 32.78 509.85 34.7102 508.07 37.1C506.147 39.6989 504.713 42.6268 503.84 45.74C502.827 49.3175 502.332 53.0219 502.37 56.74C502.339 60.4379 502.834 64.1214 503.84 67.68C504.692 70.801 506.128 73.7326 508.07 76.32C509.874 78.6887 512.193 80.6171 514.85 81.96C517.696 83.3553 520.832 84.0545 524 84Z" fill="#24385B"/>
<path d="M604.12 21.0001C609.268 20.8792 614.382 21.8612 619.12 23.8801C623.135 25.6422 626.7 28.288 629.55 31.6201C632.349 34.9642 634.454 38.8329 635.74 43.0001C637.098 47.4387 637.773 52.0583 637.74 56.7001C637.777 61.3191 637.102 65.9163 635.74 70.3301C634.451 74.4911 632.362 78.3603 629.59 81.7201C626.757 85.0881 623.189 87.7602 619.16 89.5301C609.528 93.3672 598.792 93.3672 589.16 89.5301C585.104 87.7719 581.51 85.0988 578.66 81.7201C575.887 78.3623 573.801 74.4923 572.52 70.3301C571.153 65.9173 570.478 61.3194 570.52 56.7001C570.482 52.058 571.157 47.4376 572.52 43.0001C573.785 38.8314 575.873 34.9585 578.66 31.6101C581.528 28.2674 585.118 25.6207 589.16 23.8701C593.886 21.8617 598.986 20.8833 604.12 21.0001ZM604.12 84.0001C607.196 84.0763 610.245 83.4196 613.017 82.0842C615.789 80.7488 618.203 78.773 620.06 76.3201C621.995 73.7298 623.427 70.799 624.28 67.6801C625.286 64.1215 625.781 60.438 625.75 56.7401C625.788 53.022 625.293 49.3176 624.28 45.7401C623.406 42.629 621.976 39.7019 620.06 37.1001C618.274 34.7123 615.947 32.7827 613.27 31.4701C610.396 30.165 607.276 29.4899 604.12 29.4899C600.964 29.4899 597.844 30.165 594.97 31.4701C592.294 32.7801 589.969 34.7103 588.19 37.1001C586.284 39.693 584.864 42.6102 584 45.7101C582.987 49.2876 582.492 52.992 582.53 56.7101C582.498 60.4113 582.993 64.0983 584 67.6601C584.852 70.7811 586.287 73.7127 588.23 76.3001C590.031 78.6676 592.346 80.5959 595 81.9401C597.834 83.3376 600.96 84.0436 604.12 84.0001Z" fill="#24385B"/>
<path d="M669.4 70.7999V73.6199C669.4 74.2999 669.4 75.1099 669.53 76.0499C669.79 79.2899 670.72 81.3799 672.35 82.3199C673.98 83.2599 676.95 83.4699 681.35 82.9599V90.9999C679.78 91.2523 678.198 91.4259 676.61 91.5199C675.07 91.5999 673.54 91.6399 672 91.6399C667.733 91.6399 664.513 90.7233 662.34 88.8899C660.167 87.0566 658.907 84.0066 658.56 79.7399C658.48 78.7999 658.43 77.6499 658.43 76.2799V31.7599H649.35V23.3099H658.43V7.56995H669.43V23.3099H682.1V31.7599H669.4V70.7999Z" fill="#24385B"/>
<path d="M380.51 1.63996C381.395 1.61795 382.276 1.77628 383.098 2.10533C383.921 2.43437 384.667 2.92725 385.293 3.55398C385.919 4.18071 386.411 4.9282 386.738 5.75097C387.066 6.57374 387.223 7.45459 387.2 8.33996C387.21 9.21102 387.046 10.0754 386.718 10.8824C386.391 11.6894 385.905 12.4229 385.29 13.04C384.672 13.6701 383.934 14.1706 383.12 14.5123C382.306 14.854 381.433 15.03 380.55 15.03C379.667 15.03 378.793 14.854 377.98 14.5123C377.166 14.1706 376.428 13.6701 375.81 13.04C375.174 12.4344 374.668 11.705 374.324 10.8967C373.98 10.0884 373.805 9.21835 373.81 8.33996C373.788 7.44588 373.955 6.55728 374.3 5.732C374.645 4.90671 375.159 4.16324 375.81 3.54996C376.427 2.9355 377.161 2.45015 377.968 2.12222C378.775 1.79429 379.639 1.63034 380.51 1.63996Z" fill="#24385B"/>
<path d="M84.3898 87.91C84.3898 87.91 90.3898 89.55 93.9898 89.55C97.5898 89.55 107.49 88.49 107.49 78.09C107.49 68.26 105.86 66.25 105.86 66.25C105.86 66.25 105.52 69.74 95.3398 72.95C92.1067 73.8324 89.1442 75.5061 86.7198 77.82C86.0686 78.4889 85.5102 79.2423 85.0598 80.06C84.6199 81.1657 84.3339 82.3265 84.2098 83.51C83.8398 85.08 82.2098 85.93 81.0198 86.81C79.0898 88.21 76.8198 90.54 76.8198 93.09L77.6298 95.53C78.1498 94.35 78.6298 93.11 79.2098 91.98C79.8635 90.7613 80.7151 89.6597 81.7298 88.72C82.376 88.1195 83.0794 87.5837 83.8298 87.12C87.2767 85.0648 90.9737 83.4616 94.8298 82.35C98.2598 81.22 102.26 77.7 102.09 74.52C102.09 74.52 103.62 74.32 103.19 76.12C102.76 77.92 100.11 81.66 93.6798 83.81C87.2498 85.96 85.4298 87.26 84.3898 87.91Z" fill="#24385B"/>
<path d="M39.5302 102.38C39.5302 102.38 33.5302 104.01 29.9302 104.01C26.3302 104.01 16.4302 103 16.4302 92.55C16.4302 82.73 18.0602 80.72 18.0602 80.72C18.0602 80.72 18.4002 84.21 28.5802 87.42C31.8133 88.3023 34.7758 89.976 37.2002 92.29C37.8514 92.9588 38.4098 93.7122 38.8602 94.53C39.3019 95.642 39.5879 96.8097 39.7102 98C40.0802 99.57 41.7102 100.42 42.9002 101.29C44.8302 102.7 47.1002 105.02 47.1002 107.58L45.6102 108.66L45.3502 107.88C44.3521 105.258 42.499 103.049 40.0902 101.61C36.6413 99.5561 32.9449 97.9499 29.0902 96.83C25.6602 95.71 21.6602 92.18 21.8302 89.01C21.8302 89.01 20.3002 88.81 20.7302 90.61C21.1602 92.41 23.8102 96.15 30.2402 98.3C36.6702 100.45 38.4902 101.73 39.5302 102.38Z" fill="#24385B"/>
<path d="M45.52 108.35C43.2146 113.216 39.9293 117.553 35.87 121.09L0 129.28H127.69L91.83 121.09C84.21 114.64 79.65 104.74 77.83 95.09C77.58 93.8 77.38 92.5 77.23 91.23C76.39 84.23 77 77.68 78.89 72.97C83.23 71.91 91.89 63.97 91.89 63.97C128.89 60.55 126.81 5.72 126.81 5.72H104.89V3C104.89 3 89 0 63.85 0C38.7 0 22.85 3 22.85 3V5.77H0.94C0.94 5.77 -1.18 60.6 35.87 64C35.87 64 44.49 71.89 48.87 73C52.06 80.94 51.58 94.2 46.76 105.75C46.34 106.61 46 107.49 45.52 108.35ZM103.59 13.35H115.81C115.81 13.35 114.52 49.97 97.66 51.58C97.66 51.55 98.12 51.06 103.59 13.32V13.35ZM11.88 13.35H24.1C29.58 51.06 30 51.55 30 51.55C13.17 49.94 11.88 13.32 11.88 13.32V13.35ZM50.44 49C49.92 49.5815 49.2357 49.9914 48.4776 50.1753C47.7195 50.3592 46.9234 50.3084 46.1947 50.0298C45.4661 49.7511 44.8393 49.2577 44.3974 48.6148C43.9555 47.972 43.7192 47.2101 43.72 46.43V32.3C43.72 32.01 43.72 31.72 43.72 31.44L39.72 27.44C38.9986 26.7173 38.5939 25.7376 38.5948 24.7165C38.5957 23.6953 39.0023 22.7164 39.725 21.995C40.4477 21.2736 41.4274 20.8689 42.4485 20.8698C43.4697 20.8707 44.4486 21.2773 45.17 22L47.1 23.93C49.3152 21.6177 52.3525 20.2717 55.5535 20.1838C58.7544 20.0958 61.8611 21.2729 64.2 23.46C65.9294 21.84 68.0941 20.7601 70.4284 20.3528C72.7628 19.9456 75.1653 20.2287 77.341 21.1673C79.5168 22.106 81.3712 23.6595 82.6767 25.6371C83.9821 27.6147 84.6819 29.9304 84.69 32.3V38.16C84.69 38.3 84.69 38.44 84.69 38.58V46.47C84.69 47.4911 84.2844 48.4703 83.5624 49.1924C82.8403 49.9144 81.8611 50.32 80.84 50.32C79.8215 50.3147 78.8463 49.9071 78.127 49.1859C77.4077 48.4648 77.0026 47.4885 77 46.47V34.12C76.9948 34.0334 76.9948 33.9466 77 33.86V32.8C76.9616 31.6505 76.4816 30.5599 75.6598 29.7552C74.838 28.9505 73.7376 28.4936 72.5875 28.4794C71.4374 28.4652 70.3262 28.8949 69.4848 29.6792C68.6434 30.4634 68.1367 31.5417 68.07 32.69V46.47C68.07 47.4911 67.6644 48.4703 66.9424 49.1924C66.2203 49.9144 65.2411 50.32 64.22 50.32C63.1989 50.32 62.2197 49.9144 61.4976 49.1924C60.7756 48.4703 60.37 47.4911 60.37 46.47V38.37C60.365 38.3001 60.365 38.2299 60.37 38.16V32.69C60.3433 31.559 59.877 30.4829 59.07 29.69C58.4455 29.0658 57.65 28.6405 56.7841 28.4678C55.9181 28.2951 55.0204 28.3828 54.2042 28.7198C53.388 29.0567 52.6899 29.6279 52.198 30.3612C51.706 31.0944 51.4423 31.957 51.44 32.84V46.47C51.4322 47.4082 51.0758 48.31 50.44 49Z" fill="#24385B"/>
<path d="M159.58 106.11C160.669 106.088 161.753 106.264 162.78 106.63C163.641 106.947 164.433 107.43 165.11 108.05C165.748 108.658 166.261 109.385 166.62 110.19C166.986 111.04 167.222 111.94 167.32 112.86H163.67C163.625 111.737 163.169 110.67 162.39 109.86C161.985 109.493 161.512 109.21 160.997 109.028C160.481 108.846 159.935 108.768 159.39 108.8C158.455 108.771 157.534 109.029 156.75 109.54C156.389 109.799 156.101 110.147 155.914 110.55C155.727 110.953 155.646 111.397 155.68 111.84C155.657 112.307 155.744 112.772 155.934 113.199C156.123 113.626 156.409 114.003 156.77 114.3C157.874 115.032 159.116 115.532 160.42 115.77C162.41 116.102 164.279 116.951 165.84 118.23C166.429 118.798 166.89 119.485 167.192 120.246C167.494 121.006 167.629 121.823 167.59 122.64C167.606 123.572 167.389 124.493 166.96 125.32C166.549 126.102 165.972 126.784 165.27 127.32C164.52 127.893 163.673 128.326 162.77 128.6C161.798 128.902 160.787 129.053 159.77 129.05C157.597 129.158 155.451 128.539 153.67 127.29C152.892 126.673 152.254 125.897 151.799 125.014C151.344 124.131 151.081 123.162 151.03 122.17H154.68C154.86 123.372 155.48 124.464 156.421 125.233C157.362 126.002 158.556 126.393 159.77 126.33C160.813 126.364 161.839 126.055 162.69 125.45C163.072 125.184 163.382 124.827 163.591 124.412C163.801 123.996 163.903 123.535 163.89 123.07C163.916 122.562 163.829 122.055 163.635 121.584C163.442 121.114 163.146 120.692 162.77 120.35C161.649 119.523 160.346 118.977 158.97 118.76C157.996 118.524 157.038 118.23 156.1 117.88C155.301 117.584 154.555 117.162 153.89 116.63C153.299 116.142 152.821 115.531 152.49 114.84C152.141 114.064 151.97 113.22 151.99 112.37C151.973 111.453 152.183 110.546 152.6 109.73C152.993 108.948 153.557 108.265 154.25 107.73C154.977 107.169 155.8 106.745 156.68 106.48C157.623 106.216 158.6 106.092 159.58 106.11Z" fill="#24385B"/>
<path d="M183.22 109.31V128.64H179.7V109.31H172V106.56H190.95V109.31H183.22Z" fill="#24385B"/>
<path d="M211.61 122.94C211.692 124.099 211.869 125.25 212.14 126.38C212.328 127.19 212.667 127.956 213.14 128.64H209.27C208.968 127.911 208.737 127.154 208.58 126.38C208.42 125.61 208.28 124.61 208.15 123.38C208.06 122.387 207.742 121.429 207.22 120.58C206.965 120.226 206.628 119.938 206.238 119.741C205.848 119.545 205.417 119.445 204.98 119.45C204.71 119.435 204.44 119.435 204.17 119.45H199.93V128.67H196.41V106.56H204H205.57C206.062 106.57 206.553 106.607 207.04 106.67C207.807 106.765 208.559 106.953 209.28 107.23C209.937 107.479 210.536 107.861 211.04 108.35C211.546 108.851 211.944 109.45 212.21 110.11C212.515 110.89 212.661 111.723 212.64 112.56C212.704 113.809 212.297 115.036 211.5 116C210.706 116.863 209.694 117.495 208.57 117.83C209.521 118.206 210.3 118.918 210.76 119.83C211.24 120.803 211.528 121.859 211.61 122.94ZM203.61 116.7H204.73C205.018 116.701 205.305 116.681 205.59 116.64C206.475 116.568 207.315 116.218 207.99 115.64C208.337 115.302 208.607 114.893 208.779 114.44C208.952 113.988 209.024 113.503 208.99 113.02C209.032 112.559 208.982 112.095 208.843 111.654C208.704 111.213 208.479 110.803 208.18 110.45C207.557 109.877 206.763 109.526 205.92 109.45L205.01 109.35C204.697 109.35 204.317 109.35 203.87 109.35H199.97V116.74L203.61 116.7Z" fill="#24385B"/>
<path d="M228.47 106.11C230.014 106.084 231.547 106.367 232.98 106.94C234.255 107.464 235.399 108.263 236.33 109.28C237.262 110.333 237.964 111.57 238.39 112.91C238.873 114.426 239.11 116.009 239.09 117.6C239.11 119.184 238.874 120.761 238.39 122.27C237.959 123.608 237.258 124.844 236.33 125.9C235.406 126.929 234.26 127.736 232.98 128.26C230.081 129.361 226.879 129.361 223.98 128.26C222.699 127.731 221.552 126.925 220.62 125.9C219.678 124.85 218.97 123.613 218.54 122.27C218.053 120.762 217.813 119.185 217.83 117.6C217.814 116.009 218.053 114.425 218.54 112.91C218.965 111.565 219.674 110.327 220.62 109.28C221.558 108.267 222.705 107.469 223.98 106.94C225.407 106.37 226.933 106.088 228.47 106.11ZM228.47 126.37C229.429 126.41 230.384 126.219 231.254 125.814C232.124 125.408 232.884 124.8 233.47 124.04C234.778 122.157 235.415 119.889 235.28 117.6C235.42 115.304 234.782 113.029 233.47 111.14C232.842 110.416 232.066 109.835 231.193 109.436C230.321 109.038 229.374 108.832 228.415 108.832C227.456 108.832 226.509 109.038 225.637 109.436C224.764 109.835 223.988 110.416 223.36 111.14C222.048 113.029 221.41 115.304 221.55 117.6C221.435 119.88 222.086 122.133 223.4 124C223.989 124.777 224.758 125.399 225.642 125.812C226.525 126.225 227.496 126.417 228.47 126.37Z" fill="#24385B"/>
<path d="M259 128.64L249.21 110.43C249.21 111.71 249.28 113.02 249.31 114.35C249.34 115.68 249.31 116.93 249.31 118.08V128.64H245.79V106.56H250.79L260.67 124.9C260.67 123.64 260.61 122.33 260.59 120.96C260.57 119.59 260.59 118.34 260.59 117.18V106.56H264.04V128.64H259Z" fill="#24385B"/>
<path d="M290.2 117.7V128.64H287.2L287.08 124.9L286.08 127.04C285.346 127.749 284.47 128.294 283.51 128.639C282.55 128.984 281.527 129.12 280.51 129.04C279.057 129.064 277.616 128.781 276.28 128.21C275.071 127.671 273.995 126.872 273.13 125.87C272.224 124.82 271.543 123.595 271.13 122.27C270.667 120.774 270.441 119.216 270.46 117.65C270.441 116.037 270.705 114.432 271.24 112.91C271.723 111.556 272.471 110.312 273.44 109.25C274.38 108.234 275.525 107.429 276.8 106.89C278.163 106.328 279.626 106.046 281.1 106.06C282.4 106.037 283.694 106.229 284.93 106.63C285.958 106.969 286.909 107.505 287.73 108.21C288.496 108.88 289.115 109.7 289.55 110.62C289.989 111.567 290.263 112.581 290.36 113.62V113.94H286.9L286.84 113.62C286.618 112.269 285.974 111.022 285 110.06C283.912 109.133 282.507 108.664 281.08 108.75C280.115 108.738 279.16 108.951 278.29 109.37C277.458 109.79 276.732 110.396 276.17 111.14C275.552 111.969 275.091 112.905 274.81 113.9C274.479 115.057 274.317 116.256 274.33 117.46C274.315 118.703 274.477 119.942 274.81 121.14C275.085 122.143 275.539 123.088 276.15 123.93C276.952 124.965 278.066 125.713 279.328 126.063C280.589 126.412 281.93 126.345 283.15 125.87C283.829 125.612 284.446 125.214 284.96 124.7C285.491 124.173 285.909 123.543 286.19 122.85C286.512 122.082 286.692 121.262 286.72 120.43H281.79V117.7H290.2Z" fill="#24385B"/>
<path d="M322 122.94C322.084 124.098 322.258 125.249 322.52 126.38C322.708 127.19 323.048 127.956 323.52 128.64H319.65C319.348 127.911 319.117 127.154 318.96 126.38C318.8 125.61 318.66 124.61 318.53 123.38C318.44 122.387 318.122 121.429 317.6 120.58C317.345 120.226 317.008 119.938 316.618 119.741C316.228 119.545 315.797 119.445 315.36 119.45C315.09 119.436 314.82 119.436 314.55 119.45H310.31V128.67H306.79V106.56H314.4H315.97C316.462 106.57 316.952 106.607 317.44 106.67C318.207 106.765 318.959 106.953 319.68 107.23C320.342 107.479 320.945 107.864 321.45 108.36C321.954 108.856 322.35 109.452 322.61 110.11C322.914 110.89 323.061 111.723 323.04 112.56C323.107 113.818 322.688 115.053 321.87 116.01C321.082 116.875 320.072 117.508 318.95 117.84C319.9 118.216 320.68 118.928 321.14 119.84C321.622 120.809 321.914 121.861 322 122.94ZM314 116.7H315.12C315.408 116.7 315.695 116.68 315.98 116.64C316.865 116.568 317.705 116.218 318.38 115.64C318.727 115.302 318.997 114.893 319.169 114.44C319.342 113.988 319.414 113.503 319.38 113.02C319.423 112.559 319.373 112.093 319.232 111.652C319.091 111.21 318.862 110.801 318.56 110.45C317.942 109.876 317.15 109.524 316.31 109.45L315.4 109.35C315.087 109.35 314.707 109.35 314.26 109.35H310.36V116.74L314 116.7Z" fill="#24385B"/>
<path d="M338.87 106.11C340.413 106.084 341.947 106.367 343.38 106.94C344.654 107.467 345.797 108.265 346.73 109.28C347.662 110.333 348.364 111.57 348.79 112.91C349.273 114.426 349.509 116.009 349.49 117.6C349.51 119.184 349.274 120.761 348.79 122.27C348.359 123.608 347.658 124.844 346.73 125.9C345.803 126.927 344.659 127.733 343.38 128.26C340.481 129.361 337.279 129.361 334.38 128.26C333.092 127.734 331.938 126.928 331 125.9C330.058 124.85 329.349 123.613 328.92 122.27C328.432 120.762 328.193 119.185 328.21 117.6C328.194 116.009 328.433 114.425 328.92 112.91C329.345 111.565 330.054 110.327 331 109.28C331.938 108.267 333.084 107.469 334.36 106.94C335.793 106.367 337.326 106.084 338.87 106.11ZM338.87 126.37C339.829 126.41 340.783 126.219 341.653 125.814C342.524 125.408 343.284 124.8 343.87 124.04C345.178 122.157 345.815 119.889 345.68 117.6C345.82 115.304 345.182 113.029 343.87 111.14C343.242 110.416 342.465 109.835 341.593 109.436C340.721 109.038 339.774 108.832 338.815 108.832C337.856 108.832 336.909 109.038 336.036 109.436C335.164 109.835 334.388 110.416 333.76 111.14C332.465 113.035 331.845 115.31 332 117.6C331.871 119.874 332.504 122.127 333.8 124C334.389 124.777 335.158 125.399 336.042 125.812C336.925 126.225 337.896 126.417 338.87 126.37Z" fill="#24385B"/>
<path d="M365.43 106.11C366.973 106.084 368.507 106.367 369.94 106.94C371.214 107.467 372.357 108.265 373.29 109.28C374.222 110.333 374.924 111.57 375.35 112.91C375.833 114.426 376.069 116.009 376.05 117.6C376.07 119.184 375.834 120.761 375.35 122.27C374.919 123.608 374.218 124.844 373.29 125.9C372.364 126.927 371.219 127.733 369.94 128.26C367.041 129.361 363.839 129.361 360.94 128.26C359.657 127.736 358.508 126.929 357.58 125.9C356.638 124.85 355.93 123.613 355.5 122.27C355.013 120.762 354.773 119.185 354.79 117.6C354.774 116.009 355.013 114.425 355.5 112.91C355.925 111.565 356.634 110.327 357.58 109.28C358.515 108.263 359.662 107.464 360.94 106.94C362.367 106.369 363.893 106.087 365.43 106.11ZM365.43 126.37C366.389 126.41 367.344 126.219 368.214 125.814C369.084 125.408 369.844 124.8 370.43 124.04C371.734 122.155 372.371 119.888 372.24 117.6C372.374 115.305 371.737 113.031 370.43 111.14C369.802 110.416 369.026 109.835 368.153 109.436C367.281 109.038 366.334 108.832 365.375 108.832C364.416 108.832 363.469 109.038 362.596 109.436C361.724 109.835 360.948 110.416 360.32 111.14C359.008 113.029 358.37 115.304 358.51 117.6C358.375 119.889 359.012 122.157 360.32 124.04C360.917 124.816 361.695 125.434 362.585 125.84C363.476 126.246 364.453 126.428 365.43 126.37Z" fill="#24385B"/>
<path d="M390.93 109.31V128.64H387.41V109.31H379.7V106.56H398.65V109.31H390.93Z" fill="#24385B"/>
<path d="M411.19 106.11C412.279 106.088 413.363 106.264 414.39 106.63C415.256 106.945 416.051 107.427 416.73 108.05C417.368 108.656 417.878 109.383 418.23 110.19C418.601 111.038 418.837 111.939 418.93 112.86H415.29C415.24 111.738 414.786 110.672 414.01 109.86C413.605 109.494 413.131 109.211 412.616 109.029C412.101 108.848 411.555 108.77 411.01 108.8C410.075 108.769 409.153 109.027 408.37 109.54C408.008 109.798 407.719 110.146 407.531 110.549C407.344 110.952 407.264 111.397 407.3 111.84C407.276 112.306 407.362 112.771 407.549 113.198C407.737 113.625 408.021 114.002 408.38 114.3C409.476 115.034 410.706 115.544 412 115.8C413.993 116.135 415.864 116.983 417.43 118.26C418.312 119.189 418.892 120.365 419.092 121.631C419.292 122.897 419.103 124.194 418.55 125.35C418.132 126.13 417.553 126.812 416.85 127.35C416.101 127.925 415.254 128.359 414.35 128.63C413.379 128.933 412.367 129.084 411.35 129.08C409.177 129.188 407.031 128.569 405.25 127.32C404.477 126.698 403.842 125.922 403.387 125.04C402.933 124.158 402.668 123.19 402.61 122.2H406.26C406.473 123.412 407.106 124.51 408.05 125.3C408.995 126.023 410.161 126.398 411.35 126.36C412.396 126.394 413.425 126.085 414.28 125.48C414.662 125.214 414.972 124.857 415.181 124.442C415.391 124.026 415.493 123.565 415.48 123.1C415.504 122.592 415.416 122.085 415.222 121.615C415.029 121.145 414.734 120.724 414.36 120.38C413.234 119.555 411.928 119.01 410.55 118.79C409.579 118.556 408.624 118.262 407.69 117.91C406.89 117.616 406.144 117.194 405.48 116.66C404.883 116.175 404.401 115.564 404.07 114.87C403.722 114.06 403.552 113.185 403.571 112.303C403.59 111.422 403.797 110.554 404.18 109.76C404.579 108.982 405.142 108.3 405.83 107.76C406.557 107.199 407.381 106.775 408.26 106.51C409.212 106.234 410.199 106.099 411.19 106.11Z" fill="#24385B"/>
<path d="M444 106.11C445.293 106.086 446.581 106.278 447.81 106.68C448.829 107.026 449.772 107.562 450.59 108.26C451.353 108.93 451.969 109.751 452.4 110.67C452.839 111.617 453.113 112.631 453.21 113.67V113.99H449.72L449.65 113.67C449.429 112.316 448.781 111.069 447.8 110.11C446.715 109.185 445.314 108.716 443.89 108.8C442.934 108.787 441.989 109 441.13 109.42C440.3 109.843 439.575 110.448 439.01 111.19C438.399 112.02 437.945 112.956 437.67 113.95C437.351 115.109 437.196 116.308 437.21 117.51C437.194 118.752 437.349 119.99 437.67 121.19C437.935 122.201 438.386 123.154 439 124C439.54 124.737 440.246 125.336 441.06 125.75C441.888 126.165 442.804 126.374 443.73 126.36C445.161 126.445 446.567 125.959 447.64 125.01C448.617 124.04 449.264 122.788 449.49 121.43L449.56 121.11H453V121.43C452.905 122.473 452.62 123.489 452.16 124.43C451.701 125.357 451.062 126.183 450.28 126.86C449.44 127.579 448.469 128.13 447.42 128.48C446.174 128.883 444.87 129.079 443.56 129.06C442.101 129.082 440.654 128.799 439.31 128.23C438.084 127.696 436.991 126.897 436.11 125.89C435.209 124.836 434.529 123.612 434.11 122.29C433.628 120.798 433.391 119.238 433.41 117.67C433.391 116.056 433.655 114.452 434.19 112.93C434.666 111.577 435.407 110.332 436.37 109.27C437.297 108.252 438.433 107.447 439.7 106.91C441.064 106.352 442.527 106.08 444 106.11Z" fill="#24385B"/>
<path d="M475.29 122.94C475.374 124.098 475.548 125.249 475.81 126.38C475.998 127.19 476.338 127.956 476.81 128.64H473C472.698 127.911 472.467 127.154 472.31 126.38C472.15 125.61 472.01 124.61 471.88 123.38C471.79 122.387 471.472 121.429 470.95 120.58C470.695 120.226 470.358 119.938 469.968 119.741C469.578 119.545 469.147 119.445 468.71 119.45C468.437 119.435 468.163 119.435 467.89 119.45H463.66V128.67H460.14V106.56H467.75H469.32C469.812 106.57 470.303 106.607 470.79 106.67C471.557 106.765 472.309 106.953 473.03 107.23C473.692 107.479 474.295 107.864 474.8 108.36C475.305 108.856 475.7 109.452 475.96 110.11C476.265 110.89 476.411 111.723 476.39 112.56C476.457 113.818 476.038 115.053 475.22 116.01C474.43 116.872 473.421 117.505 472.3 117.84C473.251 118.216 474.03 118.928 474.49 119.84C474.951 120.813 475.222 121.865 475.29 122.94ZM467.29 116.7H468.41C468.698 116.7 468.985 116.68 469.27 116.64C470.155 116.568 470.995 116.218 471.67 115.64C472.017 115.302 472.287 114.893 472.459 114.44C472.632 113.988 472.704 113.503 472.67 113.02C472.713 112.559 472.663 112.093 472.522 111.652C472.381 111.21 472.152 110.801 471.85 110.45C471.232 109.876 470.441 109.524 469.6 109.45L468.69 109.35C468.377 109.35 467.997 109.35 467.55 109.35H463.65V116.74L467.29 116.7Z" fill="#24385B"/>
<path d="M498.23 128.64H483V106.56H498V109.31H486.49V116.22H497V119H486.49V125.84H498.23V128.64Z" fill="#24385B"/>
<path d="M508.56 121.34L506.17 128.64H502.42L510.36 106.56H514.9L522.61 128.64H518.8L516.4 121.34H508.56ZM515.48 118.59L512.56 109.5L509.49 118.59H515.48Z" fill="#24385B"/>
<path d="M535 109.31V128.64H531.48V109.31H523.8V106.56H542.74V109.31H535Z" fill="#24385B"/>
<path d="M563.48 128.64H548.21V106.56H563.16V109.31H551.73V116.22H562.26V119H551.73V125.84H563.48V128.64Z" fill="#24385B"/>
<path d="M602 128.64H598.48V113.76C598.48 112.35 598.48 111.06 598.55 109.89C598.23 111.06 597.85 112.35 597.43 113.76C597.01 115.17 596.57 116.5 596.15 117.76L592.59 128.64H588.5L584.92 117.73C584.51 116.49 584.09 115.17 583.67 113.73C583.25 112.29 582.88 111.04 582.58 109.87C582.58 111.06 582.64 112.36 582.64 113.74V128.59H579.12V106.56H584.8L590.63 125.5L596.46 106.56H602V128.64Z" fill="#24385B"/>
<path d="M625.11 128.64H609.84V106.56H624.79V109.31H613.36V116.22H623.89V119H613.36V125.84H625.11V128.64Z" fill="#24385B"/>
<path d="M646.8 122.94C646.892 124.098 647.069 125.248 647.33 126.38C647.514 127.191 647.854 127.958 648.33 128.64H644.46C644.158 127.911 643.927 127.154 643.77 126.38C643.61 125.61 643.47 124.61 643.34 123.38C643.25 122.387 642.932 121.429 642.41 120.58C642.154 120.226 641.817 119.939 641.428 119.743C641.038 119.546 640.607 119.446 640.17 119.45C639.897 119.435 639.623 119.435 639.35 119.45H635.11V128.67H631.6V106.56H639.22H640.79C641.282 106.57 641.773 106.607 642.26 106.67C643.027 106.765 643.779 106.953 644.5 107.23C645.162 107.479 645.765 107.864 646.27 108.36C646.775 108.856 647.17 109.452 647.43 110.11C647.73 110.891 647.876 111.723 647.86 112.56C647.927 113.818 647.508 115.053 646.69 116.01C645.898 116.875 644.885 117.507 643.76 117.84C644.715 118.213 645.498 118.925 645.96 119.84C646.435 120.811 646.72 121.863 646.8 122.94ZM638.8 116.7H639.92C640.211 116.701 640.502 116.681 640.79 116.64C641.675 116.568 642.515 116.218 643.19 115.64C643.537 115.302 643.807 114.893 643.979 114.44C644.152 113.988 644.224 113.503 644.19 113.02C644.233 112.559 644.183 112.093 644.042 111.652C643.901 111.21 643.672 110.801 643.37 110.45C642.752 109.876 641.961 109.524 641.12 109.45L640.2 109.35C639.89 109.35 639.52 109.35 639.07 109.35H635.16V116.74L638.8 116.7Z" fill="#24385B"/>
<path d="M654.48 128.64V106.56H658V128.64H654.48Z" fill="#24385B"/>
<path d="M675 109.31V128.64H671.48V109.31H663.76V106.56H682.76V109.31H675Z" fill="#24385B"/>
<path d="M238.38 41.3701V90.6401H230.79V43.4401C230.79 39.1568 229.088 35.049 226.06 32.0203C223.031 28.9916 218.923 27.2901 214.64 27.2901C210.357 27.2901 206.249 28.9916 203.22 32.0203C200.192 35.049 198.49 39.1568 198.49 43.4401V90.6401H190.89V43.4401C190.89 39.1568 189.188 35.049 186.16 32.0203C183.131 28.9916 179.023 27.2901 174.74 27.2901C170.457 27.2901 166.349 28.9916 163.32 32.0203C160.292 35.049 158.59 39.1568 158.59 43.4401V90.6401H151V41.3701C151 36.0047 153.131 30.8591 156.925 27.0653C160.719 23.2714 165.865 21.1401 171.23 21.1401H178.23C181.447 21.1368 184.619 21.904 187.479 23.3776C190.339 24.8512 192.805 26.9883 194.67 29.6101C196.534 26.9877 199 24.8501 201.86 23.3765C204.721 21.9028 207.892 21.136 211.11 21.1401H218.11C220.77 21.1348 223.405 21.6542 225.864 22.6685C228.323 23.6828 230.558 25.1721 232.441 27.0511C234.323 28.9302 235.817 31.1621 236.836 33.6191C237.855 36.0761 238.38 38.71 238.38 41.3701Z" fill="#24385B"/>
</g>
<defs>
<clipPath id="clip0_11_2">
<rect width="682.74" height="129.28" fill="white"/>
</clipPath>
</defs>
</svg>
