<svg width="67" height="68" viewBox="0 0 67 68" fill="none" xmlns="http://www.w3.org/2000/svg">
<path d="M44.499 46.4358C44.499 46.4358 47.629 47.2847 49.486 47.2847C51.342 47.2847 56.5 46.7336 56.5 41.3308C56.5 36.2227 55.655 35.1787 55.655 35.1787C55.655 35.1787 55.478 36.9927 50.187 38.6606C48.556 39.1748 46.909 39.9407 45.709 41.1938C45.375 41.5427 45.074 41.9297 44.845 42.3567C44.533 42.9387 44.555 43.5159 44.404 44.1497C44.211 44.9658 43.368 45.4067 42.745 45.8618C41.745 46.5918 40.563 47.7998 40.563 49.1267L40.983 50.3938C41.257 49.7817 41.486 49.1387 41.804 48.5479C42.143 47.9158 42.591 47.3418 43.116 46.8538C43.451 46.5417 43.818 46.2646 44.209 46.0269C46.398 44.6897 48.116 44.1296 49.896 43.5437C51.676 42.9578 53.759 41.1277 53.667 39.4768C53.667 39.4768 54.465 39.3738 54.239 40.3108C54.013 41.2468 52.64 43.1868 49.3 44.3037C45.96 45.4197 45.04 46.0967 44.499 46.4358Z" fill="white"/>
<path d="M21.187 53.9543C21.187 53.9543 18.057 54.8032 16.2 54.8032C14.343 54.8032 9.185 54.2522 9.185 48.8494C9.185 43.7412 10.03 42.6963 10.03 42.6963C10.03 42.6963 10.207 44.5103 15.499 46.1792C17.13 46.6934 18.777 47.4592 19.976 48.7112C20.311 49.0603 20.611 49.4482 20.841 49.8752C21.153 50.4573 21.131 51.0342 21.282 51.6682C21.475 52.4832 22.318 52.9243 22.941 53.3792C23.941 54.1091 25.122 55.3171 25.122 56.6453L24.348 57.2083C24.348 57.2083 24.225 56.8472 24.21 56.8022C24.087 56.4382 23.424 54.7332 21.477 53.5452C19.288 52.2073 17.569 51.6482 15.789 51.0623C14.009 50.4763 11.927 48.6462 12.019 46.9954C12.019 46.9954 11.221 46.8914 11.447 47.8281C11.673 48.7651 13.046 50.7053 16.386 51.8213C19.726 52.9382 20.645 53.6143 21.187 53.9543Z" fill="white"/>
<path d="M24.924 55.6816C24.731 56.1487 24.522 56.6099 24.297 57.0608C23.064 59.5847 21.404 61.8857 19.286 63.6768L0.648987 67.9316H67L48.363 63.6768C44.405 60.3298 42.038 55.1877 41.077 50.1807C40.947 49.5037 40.842 48.8308 40.764 48.1638V48.1606C40.332 44.5356 40.646 41.1167 41.63 38.6729C43.885 38.1199 48.363 34.0247 48.363 34.0247C67.611 32.2427 66.51 3.75781 66.51 3.75781H55.148V2.33984C55.148 2.33984 46.882 0.757812 33.824 0.757812C20.767 0.757812 12.501 2.33984 12.501 2.33984V3.75781H1.13899C1.13899 3.75781 0.0379791 32.2427 19.286 34.0247C19.286 34.0247 23.764 38.1199 26.019 38.6729C27.676 42.7969 27.431 49.6807 24.924 55.6787V55.6816ZM54.475 7.67969H60.826C60.826 7.67969 60.156 26.7058 51.396 27.5427C51.396 27.5427 51.631 27.2878 54.475 7.67969ZM6.82298 7.67969H13.174C16.018 27.2878 16.253 27.5427 16.253 27.5427C7.49298 26.7058 6.82298 7.67969 6.82298 7.67969ZM26.856 26.2388C26.49 26.6477 25.957 26.9058 25.366 26.9058C24.261 26.9058 23.365 26.0098 23.365 24.9048V17.5378C23.365 17.3877 23.352 17.2407 23.365 17.0938L21.286 14.9949C20.505 14.2139 20.505 12.9458 21.286 12.1648C21.679 11.7727 22.189 11.5798 22.702 11.5798C23.215 11.5798 23.725 11.7727 24.117 12.1648L25.12 13.1677C26.271 11.9648 27.892 11.2168 29.69 11.2168C31.36 11.2168 32.877 11.8638 34.008 12.9229C35.138 11.8638 36.658 11.2168 38.328 11.2168C40.074 11.2168 41.656 11.9229 42.8 13.0667C43.944 14.2107 44.653 15.7927 44.653 17.5378V20.5847C44.653 20.6558 44.66 20.7317 44.653 20.8027L44.647 24.9048C44.647 26.0098 43.751 26.9058 42.646 26.9058C42.055 26.9058 41.522 26.6477 41.159 26.2388C40.839 25.8857 40.646 25.4187 40.646 24.9048V18.4858C40.646 18.4397 40.646 18.3948 40.652 18.3489V17.8027C40.652 17.1619 40.394 16.5837 39.973 16.1619C39.551 15.7407 38.969 15.4817 38.328 15.4817C37.067 15.4817 36.041 16.4888 36.011 17.7437V24.9048C36.011 25.4187 35.818 25.8857 35.498 26.2388C35.135 26.6477 34.602 26.9058 34.011 26.9058C33.416 26.9058 32.883 26.6477 32.52 26.2358C32.203 25.8828 32.01 25.4148 32.01 24.9048V20.6917C32.007 20.6558 32.007 20.6199 32.007 20.5847V17.7437C31.994 17.1257 31.739 16.5708 31.331 16.1619C30.909 15.7407 30.33 15.4817 29.69 15.4817C29.062 15.4817 28.5 15.7268 28.082 16.1296C27.64 16.5508 27.366 17.1458 27.366 17.8027V24.9048C27.366 25.4187 27.176 25.8857 26.856 26.2388Z" fill="white"/>
</svg>
