<svg width="58" height="58" viewBox="0 0 58 58" fill="none" xmlns="http://www.w3.org/2000/svg">
<path d="M1 53.9819V35.1611C1.59717 33.0474 3.08398 32.376 4.99902 32.4224C8.04395 32.4951 11.0918 32.4663 14.1382 32.4302C15.4502 32.4141 16.5679 32.7329 17.499 33.98C17.6372 33.7593 17.7168 33.561 17.856 33.4224C19.0791 32.1841 20.2939 30.936 21.5562 29.7373C21.9448 29.3672 21.9922 29.0483 21.8589 28.5581C20.1489 22.2329 18.457 15.9033 16.7642 9.57422C16.5029 8.59912 16.7661 8.14502 17.7368 7.88428C19.5552 7.396 21.376 6.91504 23.1938 6.4292C24.7109 6.02393 26.2271 5.61523 27.7168 5.21533C27.7412 5.12793 27.7588 5.09424 27.7588 5.05908C27.7632 4.20703 27.7661 3.35498 27.7671 2.50293C27.769 1.33936 28.0991 1 29.2422 1C37.9111 1 46.5791 1 55.2471 1C56.3672 1 56.7109 1.34326 56.7109 2.45996C56.7119 20.0474 56.709 37.6343 56.7222 55.2222C56.7231 55.8901 56.5371 56.3804 55.9502 56.7021H22C20.3599 56.3779 19.0972 55.4102 17.8979 54.21C17.4702 55.6011 16.5391 56.3481 15.2539 56.7021H3.72021C2.28418 56.3242 1.37695 55.418 1 53.9819ZM29.9819 3.20215V33.6113H32.0718V32.8901C32.0718 26.1094 32.0718 19.3291 32.0718 12.5493C32.0718 12.3491 32.0669 12.1489 32.083 11.9512C32.1372 11.3252 32.501 10.96 33.1201 10.8989C34.9438 10.7202 35.8682 9.82422 36.0791 8.03125C36.1748 7.21729 36.543 6.87793 37.3662 6.87695C40.6108 6.87305 43.8569 6.87305 47.103 6.87598C47.9312 6.87695 48.2979 7.21094 48.396 8.02197C48.6162 9.82617 49.5391 10.7261 51.3481 10.8989C51.9531 10.957 52.3682 11.3022 52.3789 11.8882C52.4082 13.4102 52.4082 14.9331 52.375 16.4551C52.3628 17.021 51.8672 17.4209 51.3208 17.4224C50.7979 17.4224 50.356 17.0493 50.2642 16.5103C50.231 16.3149 50.231 16.1133 50.23 15.9141C50.2271 15.062 50.2412 14.21 50.2168 13.3579C50.2129 13.1982 50.0981 12.937 49.979 12.8999C48.0469 12.3062 46.8628 11.0054 46.3159 9.07422H38.1567C37.6592 10.8691 36.6001 12.1553 34.8369 12.7583C34.3408 12.9282 34.2368 13.1641 34.2378 13.644C34.2529 20.0801 34.248 26.5161 34.248 32.9521V33.5903H40.0288C36.8462 31.8901 36.2588 28.2739 38.001 25.8379C39.771 23.3623 43.2749 22.897 45.5762 24.8682C46.9961 26.084 47.626 27.6514 47.3901 29.52C47.1558 31.3672 46.1128 32.6772 44.5161 33.5942C48.3218 32.9521 50.5229 35.9629 49.4502 38.8462L50.229 38.9102V38.2012C50.229 34.4844 50.228 30.7681 50.231 27.0513C50.231 26.8159 50.231 26.5771 50.2739 26.3481C50.374 25.8169 50.8398 25.46 51.3662 25.4844C51.876 25.5063 52.2959 25.8701 52.373 26.3843C52.4067 26.6162 52.4038 26.854 52.4038 27.0894C52.4058 31.3311 52.3999 35.5742 52.416 39.8159C52.417 40.1211 52.5132 40.458 52.6611 40.7271C53.7251 42.665 52.939 45.043 50.916 45.9419C50.771 46.0063 50.627 46.0723 50.4512 46.1523C50.9888 47.4443 50.9502 48.686 50.1699 49.8442C49.3779 51.0181 48.2148 51.499 46.7798 51.5C47.2139 52.5264 47.1621 53.5122 46.8101 54.4844H54.5078V3.20215H29.9819ZM22.7241 31.6382C21.1489 33.2109 19.6431 34.7031 18.1582 36.2153C18.0298 36.3452 17.9819 36.6021 17.9819 36.8003C17.9722 41.5322 17.9688 46.2642 17.9888 50.9961C17.9897 51.2393 18.1499 51.54 18.332 51.7119C19.0181 52.3579 19.751 52.9541 20.4521 53.584C21.1748 54.2329 22.0078 54.5322 22.981 54.5303C29.6899 54.522 36.3999 54.5264 43.1099 54.5249C43.2549 54.5249 43.4009 54.5303 43.5439 54.5142C44.1919 54.4419 44.7051 54 44.8608 53.3862C45.1191 52.3691 44.4067 51.4883 43.29 51.4829C40.624 51.4731 37.959 51.481 35.293 51.479C34.502 51.478 33.9961 51.0591 33.9829 50.4102C33.9702 49.7441 34.4897 49.3062 35.3101 49.3052C37.106 49.3022 38.9009 49.3042 40.6958 49.3042C42.7817 49.3042 44.8672 49.3071 46.9521 49.3022C47.77 49.3003 48.3359 48.9189 48.5508 48.248C48.8911 47.1919 48.1401 46.2612 46.9268 46.2603C43.1191 46.2539 39.311 46.2583 35.5029 46.2573C35.3027 46.2573 35.1011 46.269 34.9058 46.2393C34.3818 46.1572 33.9897 45.6963 33.9829 45.1812C33.9771 44.6689 34.3647 44.1934 34.8838 44.104C35.0791 44.0703 35.2817 44.083 35.481 44.083C39.3979 44.082 43.3149 44.082 47.2319 44.082C47.9761 44.082 48.7202 44.1001 49.4629 44.0742C50.3979 44.041 51.0479 43.271 50.9429 42.3633C50.8491 41.5591 50.187 41.0381 49.2329 41.0371C44.6641 41.0342 40.0938 41.0361 35.5239 41.0352C35.3242 41.0352 35.1211 41.0513 34.9268 41.019C34.4277 40.936 34.1079 40.6323 34.0078 40.1401C33.916 39.688 34.0791 39.2871 34.4751 39.0693C34.728 38.9292 35.0571 38.8691 35.3521 38.8682C38.7607 38.855 42.1699 38.8604 45.5791 38.8604C46.8301 38.8604 47.5479 38.311 47.5571 37.3481C47.5659 36.3862 46.8389 35.814 45.6021 35.814C38.7109 35.814 31.8198 35.814 24.9292 35.813C24.043 35.813 23.7378 35.5713 23.5171 34.709C23.2598 33.7129 23.0029 32.7173 22.7241 31.6382ZM8.39893 34.6172C7.08789 34.6172 5.83984 34.6162 4.59277 34.6172C3.54395 34.6191 3.17676 34.979 3.17676 36.0142C3.1748 41.7241 3.1748 47.4351 3.17676 53.145C3.17676 54.146 3.55518 54.5249 4.55518 54.5249C7.81787 54.5273 11.082 54.5264 14.3462 54.5264C15.4541 54.5249 15.7979 54.1772 15.7979 53.0552C15.7979 47.3999 15.7979 41.7441 15.7979 36.0879C15.7979 35.9253 15.8101 35.7593 15.7871 35.5991C15.7119 35.0742 15.4038 34.6689 14.8892 34.6514C13.4658 34.6011 12.0391 34.6333 10.5752 34.6333V35.272C10.5752 38.7163 10.5752 42.1602 10.5752 45.604C10.5752 46.1304 10.5918 46.6572 10.5669 47.1812C10.5352 47.8081 10.0698 48.2329 9.47021 48.2241C8.89404 48.2163 8.45703 47.8003 8.40479 47.2002C8.39111 47.0381 8.39893 46.874 8.39893 46.7109C8.39893 43.9561 8.39893 41.2002 8.39893 38.4453V34.6172ZM19.0552 9.78906L25.4897 33.6201H27.6582C27.5962 33.3862 27.5439 33.1792 27.4878 32.9731C26.1641 28.062 24.8389 23.1523 23.5161 18.2422C23.252 17.2612 23.4492 16.8892 24.395 16.5381C25.7349 16.043 26.52 14.7661 26.3418 13.3701C26.1812 12.1011 26.2739 11.9609 27.4531 11.5542C27.5811 11.5103 27.751 11.332 27.7529 11.2129C27.7749 9.98438 27.7671 8.75293 27.7671 7.45605L19.0552 9.78906ZM45.2739 28.833C45.2632 27.1709 43.8672 25.7983 42.208 25.8169C40.564 25.835 39.21 27.1982 39.2041 28.8413C39.1992 30.502 40.5811 31.8882 42.2422 31.8853C43.9038 31.8833 45.2852 30.4922 45.2739 28.833ZM27.7397 16.7344C27.1519 17.2202 26.542 17.71 25.9551 18.2271C25.8721 18.3003 25.854 18.5132 25.8857 18.6431C26.0698 19.397 26.2759 20.145 26.478 20.894C26.877 22.3682 27.2788 23.8403 27.6802 25.312L27.7397 25.2993V16.7344Z" fill="#17A34A" stroke="#17A34A"/>
<path d="M51.3314 22.7555C50.7455 22.7623 50.2552 22.2853 50.2415 21.6955C50.2264 21.0861 50.7293 20.5763 51.3353 20.5861C51.9286 20.5954 52.3934 21.0744 52.3924 21.6725C52.3914 22.2702 51.9222 22.7492 51.3314 22.7555Z" fill="#17A34A" stroke="#17A34A"/>
<path d="M10.5714 51.2757C10.5626 51.8744 10.0416 52.3685 9.44541 52.3446C8.86875 52.3207 8.3956 51.8226 8.40342 51.2455C8.41269 50.6454 8.93271 50.1527 9.52939 50.1766C10.1075 50.2005 10.5807 50.6986 10.5714 51.2757Z" fill="#17A34A" stroke="#17A34A"/>
</svg>
