<svg width="60" height="60" viewBox="0 0 60 60" fill="none" xmlns="http://www.w3.org/2000/svg">
<path d="M59.4053 39.6738V40.6026C58.9434 41.607 58.146 41.9087 57.0694 41.8955C53.5723 41.8516 50.0752 41.8789 46.5782 41.8789H45.8853C46.0313 42.2285 46.1402 42.4917 46.251 42.7539C48.2222 47.3858 50.1924 52.0196 52.169 56.6499C52.4214 57.2398 52.6221 57.8545 52.2354 58.4155C51.9664 58.8047 51.5293 59.0777 51.167 59.4038H50.2393C49.5083 59.0718 49.127 58.4688 48.834 57.7446C48.1773 56.1157 47.4551 54.5137 46.7862 52.8887C46.648 52.5518 46.4873 52.4199 46.1163 52.4307C45.208 52.4585 44.2994 52.44 43.3902 52.44C33.4131 52.44 23.4361 52.4448 13.459 52.4258C12.9463 52.4248 12.7251 52.5869 12.5401 53.0459C11.9053 54.6206 11.2002 56.169 10.5674 57.7446C10.2764 58.4697 9.89311 59.0718 9.16313 59.4038H8.23442C6.87797 58.5899 6.67729 57.9668 7.3062 56.4888C9.29301 51.8159 11.2823 47.1446 13.2701 42.4727C13.3433 42.3008 13.4043 42.1226 13.4981 41.8789H12.8062C9.20903 41.8789 5.61332 41.8809 2.01616 41.8779C0.793012 41.8779 -0.00679246 41.1778 4.3478e-05 40.127C0.0073677 39.0777 0.802289 38.4029 2.03813 38.398C2.51225 38.3955 2.98539 38.398 3.47709 38.398V37.6109C3.47709 29.2559 3.47905 20.9009 3.47514 12.5469C3.47416 11.2769 3.74125 10.0928 4.52543 9.06496C5.65239 7.58498 7.17534 6.94387 9.00737 6.94582C13.938 6.94875 18.8682 6.9468 23.7994 6.9468H24.481C24.481 6.30959 24.4673 5.7676 24.4834 5.22658C24.6104 1.05959 28.836 -1.32713 32.4141 0.780781C34.1182 1.78469 34.8794 3.38381 34.92 5.33791C34.9312 5.86867 34.9224 6.4009 34.9224 6.9468H35.7134C40.585 6.9468 45.458 6.9468 50.3311 6.9468C51.2481 6.9468 52.1431 7.06154 52.9703 7.48977C54.9961 8.53664 55.9224 10.2407 55.9234 12.4829C55.9263 20.8755 55.9244 29.2696 55.9244 37.6626V38.3887C57.2574 38.4419 58.7212 38.0557 59.4053 39.6738ZM6.95805 38.356H35.0381C35.0381 36.6729 35.0342 35.0308 35.0401 33.3897C35.044 32.1387 35.732 31.4385 36.9712 31.4365C40.3164 31.4307 43.6612 31.4307 47.0064 31.4356C48.2784 31.4375 48.9571 32.1328 48.961 33.4238C48.9664 34.8926 48.9624 36.3628 48.9624 37.8325C48.9624 38.0147 48.9624 38.1978 48.9624 38.3628H52.4434V37.7027C52.4434 29.3477 52.4444 20.9937 52.4434 12.6397C52.4434 11.0386 51.836 10.4287 50.2442 10.4287C36.5552 10.4278 22.8653 10.4278 9.17631 10.4287C7.56938 10.4287 6.95805 11.0327 6.95805 12.6206C6.95805 20.9746 6.95805 29.3286 6.95805 37.6826V38.356ZM45.0972 48.9409C44.1094 46.6177 43.1661 44.3779 42.189 42.1529C42.1231 42.0039 41.7984 41.8906 41.5923 41.8906C33.6651 41.877 25.7373 41.8828 17.8091 41.8677C17.4053 41.8667 17.2432 42.0098 17.0982 42.357C16.2491 44.3867 15.377 46.4077 14.5152 48.4326C14.4502 48.5869 14.4063 48.7495 14.3423 48.9409H45.0972ZM38.5313 38.3609H45.439V34.9629H38.5313V38.3609ZM31.4331 6.92482C31.4331 6.26662 31.4634 5.66994 31.4253 5.07668C31.3692 4.20266 30.6651 3.52883 29.8101 3.47268C28.96 3.41652 28.1324 3.99953 28.0171 4.86086C27.9263 5.53371 27.9991 6.22756 27.9991 6.92482H31.4331Z" fill="#17A34A"/>
<path d="M29.69 20.873C24.024 20.873 18.3584 20.874 12.6924 20.873C12.479 20.873 12.2652 20.8823 12.0542 20.8633C11.1324 20.7812 10.4371 20.0254 10.4434 19.122C10.4493 18.2173 11.1514 17.4751 12.0762 17.4013C12.2681 17.3852 12.4634 17.3921 12.6563 17.3921C24.0264 17.3921 35.397 17.3921 46.7681 17.3921C46.8643 17.3921 46.961 17.3911 47.0581 17.3921C48.1841 17.4092 48.9654 18.1284 48.958 19.144C48.9512 20.1572 48.1714 20.8711 47.0352 20.8711C41.253 20.876 35.4722 20.873 29.69 20.873Z" fill="#17A34A"/>
<path d="M29.7593 24.3539C35.4253 24.3539 41.0913 24.3539 46.7573 24.3554C46.9702 24.3554 47.1841 24.3461 47.394 24.369C48.2861 24.4682 48.958 25.2152 48.958 26.0951C48.958 26.976 48.2852 27.723 47.394 27.8212C47.1831 27.8441 46.9692 27.8354 46.7563 27.8354C35.3853 27.8363 24.0151 27.8363 12.644 27.8363C11.2529 27.8363 10.4434 27.1942 10.4434 26.0941C10.4443 24.994 11.2529 24.3539 12.645 24.3539C18.3501 24.3539 24.0542 24.3539 29.7593 24.3539Z" fill="#17A34A"/>
<path d="M20.8815 34.9156C18.0192 34.9156 15.1584 34.9249 12.2966 34.9117C10.9592 34.9059 10.1105 33.7286 10.5632 32.5519C10.8254 31.8717 11.4426 31.4459 12.2394 31.4386C13.5544 31.4259 14.8693 31.4347 16.1843 31.4337C20.6315 31.4337 25.0793 31.4298 29.5266 31.4366C30.9094 31.4386 31.7785 32.6007 31.3176 33.798C31.0432 34.5099 30.4113 34.9127 29.5256 34.9137C26.6442 34.9191 23.7624 34.9156 20.8815 34.9156Z" fill="#17A34A"/>
</svg>
