<svg width="58" height="56" viewBox="0 0 58 56" fill="none" xmlns="http://www.w3.org/2000/svg">
<path d="M1 52.6307V42.1878C1.03711 42.1307 1.08496 42.0784 1.10791 42.0154C1.59912 40.6736 2.52393 40.0164 3.94189 40.0086C4.229 40.0067 4.51514 40.0086 4.70703 40.0086V37.3738C4.70703 35.1097 4.72803 32.8455 4.69775 30.5828C4.68311 29.4808 4.79297 28.4515 5.68506 27.6937C5.63672 27.6326 5.62891 27.6146 5.61475 27.6048C5.5249 27.5438 5.43506 27.4837 5.34375 27.4256C3.23193 26.0755 1.88086 24.1766 1.26172 21.7537C1.15869 21.3538 1.08691 20.9456 1 20.5408V18.5828C1.03174 18.5008 1.08105 18.4217 1.09277 18.3377C1.43115 15.9637 2.52881 14.0125 4.354 12.4666C4.44385 12.3914 4.57275 12.3626 4.68408 12.3128C4.16309 12.1614 3.76172 12.1849 3.37402 12.1204C2.08887 11.9085 1.37207 11.0726 1 9.88068V3.24445C1.56396 1.54669 2.77686 0.927552 4.51172 1.00665C6.104 1.07745 7.70215 1.02179 9.29688 1.02179C22.8198 1.02179 36.3428 1.02081 49.8657 1.02277C51.8848 1.02277 52.9868 2.13361 52.9878 4.15558C52.9897 5.66046 52.9458 7.16681 53 8.66876C53.0571 10.2654 52.5547 11.4754 50.978 12.0545C51.311 13.9017 51.0288 14.5418 49.4678 15.6365C49.3467 15.7215 49.2871 15.9656 49.2871 16.1365C49.2749 18.4388 49.2827 20.7405 49.2739 23.0438C49.2729 23.3265 49.3369 23.4866 49.6191 23.6258C50.4927 24.0599 50.9917 24.7967 51.1021 25.7615C51.145 26.1468 51.0747 26.5447 51.0537 27.0057C51.2539 27.0057 51.4478 27.0047 51.6421 27.0067C52.4761 27.0135 53.313 26.9769 54.1421 27.0384C55.6157 27.1497 56.6821 28.3055 56.6899 29.7864C56.7051 32.8865 56.7061 35.9866 56.689 39.0867C56.6812 40.6414 55.478 41.8235 53.9238 41.8597C53.5718 41.8675 53.2207 41.8607 52.8628 41.8607C52.9111 42.2254 52.981 42.5115 52.9819 42.7986C52.9897 45.8987 53 48.9979 52.98 52.0975C52.9717 53.3714 52.145 54.4266 50.9429 54.7405C50.5811 54.8358 50.1909 54.8484 49.813 54.8494C34.604 54.8548 19.395 54.8538 4.18604 54.8528C3.96875 54.8528 3.75 54.8519 3.53369 54.8294C2.42383 54.7186 1.66016 54.1297 1.20996 53.1185C1.1377 52.9568 1.06982 52.7938 1 52.6307ZM47.395 15.8665H46.748C34.7158 15.8665 22.6831 15.8665 10.6509 15.8675C10.4688 15.8675 10.2881 15.8646 10.1069 15.8738C7.89502 15.9818 6.25879 18.0047 6.62793 20.1717C6.95801 22.1068 8.45068 23.2855 10.5889 23.2864C22.6567 23.2874 34.7261 23.2874 46.7949 23.2855C46.9868 23.2855 47.1797 23.2698 47.395 23.2596V15.8665ZM12.1558 52.9598H41.8081V41.8987H12.1558V52.9598ZM14.0439 2.90851V10.2615H39.9297V2.90851H14.0439ZM28.8911 27.0057C35.1987 27.0057 41.5068 27.0067 47.8159 27.0047C48.0508 27.0047 48.29 27.0106 48.52 26.9695C48.9971 26.8846 49.249 26.5545 49.2588 26.0945C49.27 25.6585 49.0449 25.3187 48.6001 25.2117C48.3398 25.1497 48.062 25.1478 47.792 25.1478C35.4829 25.1448 23.1748 25.1458 10.8667 25.1448C10.5771 25.1448 10.2861 25.1424 9.99707 25.1287C6.08887 24.9427 3.56885 20.8528 5.21875 17.3045C6.25293 15.0794 8.07812 14.0154 10.521 14.0145C23.0288 14.0125 35.5371 14.0135 48.0439 14.0135C48.8188 14.0135 49.2671 13.6727 49.271 13.0906C49.2749 12.5086 48.8257 12.1614 48.0547 12.1614C35.4741 12.1605 22.894 12.1517 10.314 12.1649C5.13379 12.1707 1.56689 17.2254 3.28809 22.0755C4.35986 25.0955 7.13379 26.9998 10.5098 27.0037C16.6367 27.0115 22.7642 27.0057 28.8911 27.0057ZM46.458 28.9158H14.96V39.9676H46.458V28.9158ZM48.355 40.0086C50.1411 40.0086 51.876 40.0096 53.6118 40.0076C54.5327 40.0067 54.8408 39.6937 54.8418 38.7596C54.8428 35.8797 54.8428 32.9988 54.8418 30.1185C54.8408 29.1756 54.5488 28.8738 53.6191 28.8704C52.043 28.8655 50.4668 28.8675 48.8911 28.8704C48.7178 28.8714 48.5449 28.8958 48.355 28.9095V40.0086ZM13.0488 28.8797C11.1499 28.8797 9.30273 28.8665 7.45703 28.8885C6.91992 28.8948 6.60693 29.2518 6.56885 29.8006C6.5459 30.1248 6.56201 30.4525 6.56201 30.7786C6.56201 33.4598 6.56006 36.1404 6.56299 38.8226C6.56396 39.5638 6.86475 39.9896 7.47803 39.9954C9.30811 40.0145 11.1367 39.9944 12.9658 39.9866C12.9927 39.9866 13.02 39.9437 13.0488 39.9188V28.8797ZM8.38477 10.3045V2.90167C6.78369 2.90167 5.21387 2.88361 3.64502 2.91242C3.16406 2.92169 2.86279 3.31574 2.85889 3.85382C2.84814 5.68146 2.8457 7.51056 2.85986 9.33868C2.86475 9.92169 3.23486 10.2918 3.82178 10.2986C5.32178 10.3167 6.82275 10.3045 8.38477 10.3045ZM6.52197 52.9788V41.8616C6.30371 41.8616 6.12402 41.8616 5.94482 41.8616C5.2207 41.8626 4.49512 41.8455 3.771 41.8694C3.22607 41.8875 2.88281 42.2586 2.85791 42.8206C2.84082 43.2366 2.85303 43.6536 2.85303 44.0706C2.85303 46.6614 2.85205 49.2527 2.85498 51.8436C2.85498 52.5418 3.12402 52.9466 3.68604 52.9686C4.62207 53.0057 5.56104 52.9788 6.52197 52.9788ZM47.4541 41.8646V52.9715C48.4399 52.9715 49.396 53.0037 50.3491 52.9588C50.854 52.9359 51.0918 52.5438 51.125 52.0618C51.1509 51.6834 51.1338 51.3016 51.1338 50.9217C51.1338 48.2947 51.1357 45.6688 51.1328 43.0428C51.1318 42.3026 50.8271 41.8895 50.2158 41.8714C49.313 41.8445 48.4087 41.8646 47.4541 41.8646ZM45.6128 2.90167V10.3016C47.1797 10.3016 48.6978 10.3167 50.2158 10.2947C50.7427 10.2864 51.1138 9.92169 51.1201 9.39142C51.1421 7.52863 51.1411 5.66339 51.1221 3.8006C51.1167 3.32062 50.8438 2.92462 50.3379 2.91339C48.77 2.88068 47.1997 2.90167 45.6128 2.90167ZM10.2349 52.9617V41.9075H8.45801V52.9617H10.2349ZM45.519 52.9627V41.8924H43.7388V52.9627H45.519ZM41.876 2.90363V10.2835H43.6548V2.90363H41.876ZM10.3208 2.91046V10.2718H12.0947V2.91046H10.3208Z" fill="#17A34A" stroke="#17A34A"/>
<path d="M26.9696 51.1996C24.6537 51.1117 22.37 50.9159 20.2005 50.0428C19.7015 49.8426 19.2108 49.5848 18.7777 49.2689C17.3329 48.2137 17.3456 46.6327 18.7967 45.5638C19.7767 44.8417 20.9159 44.4735 22.0907 44.2298C25.6917 43.4789 29.2835 43.4906 32.8377 44.4867C33.6087 44.7025 34.3748 45.0497 35.0497 45.4818C36.6908 46.5316 36.6859 48.2655 35.0765 49.3729C33.7459 50.2889 32.2069 50.6468 30.6429 50.8646C29.4266 51.0335 28.1947 51.0926 26.9696 51.1996ZM26.1737 45.5438C25.3729 45.6576 23.7708 45.8197 22.1986 46.1356C21.4017 46.2958 20.6375 46.6888 19.9007 47.0599C19.454 47.2845 19.4769 47.5516 19.912 47.8216C20.2777 48.0487 20.6698 48.2547 21.0765 48.3905C24.4256 49.5086 27.8358 49.5145 31.2616 48.8519C32.0687 48.6957 32.8529 48.3807 33.6209 48.0746C33.9159 47.9579 34.1375 47.6605 34.3939 47.4466C34.1317 47.2167 33.891 46.9569 33.6029 46.7655C33.3665 46.6087 33.0809 46.5199 32.8089 46.4237C30.9227 45.7577 28.9608 45.6029 26.1737 45.5438Z" fill="#17A34A" stroke="#17A34A"/>
<path d="M30.6991 38.1536C27.1112 38.1536 23.5224 38.1536 19.9345 38.1526C18.9301 38.1526 18.6322 37.8577 18.6312 36.8635C18.6303 35.2146 18.6283 33.5647 18.6322 31.9158C18.6342 31.0486 18.9433 30.7307 19.8075 30.7307C27.0751 30.7278 34.3422 30.7278 41.6093 30.7307C42.4721 30.7307 42.7704 31.0457 42.7714 31.9255C42.7733 33.5925 42.7733 35.2595 42.7714 36.9265C42.7704 37.8464 42.4584 38.1526 41.5194 38.1526C37.9125 38.1545 34.3065 38.1536 30.6991 38.1536ZM20.5165 36.2576H40.8915V32.6306H20.5165V36.2576Z" fill="#17A34A" stroke="#17A34A"/>
</svg>
