<svg width="47" height="48" viewBox="0 0 47 48" fill="none" xmlns="http://www.w3.org/2000/svg">
<path d="M39.431 8.32202C35.337 4.22705 29.668 1.68799 23.4091 1.68799C17.1591 1.68799 11.49 4.22705 7.38599 8.32202C3.29102 12.426 0.751953 18.095 0.751953 24.345C0.751953 36.854 10.9 47.001 23.4091 47.001C29.668 47.001 35.337 44.4619 39.431 40.3669C43.526 36.2629 46.0649 30.594 46.0649 24.345C46.0649 18.095 43.526 12.426 39.431 8.32202ZM19.698 18.957L29.181 24.345L19.698 29.7419V18.957Z" stroke="white" stroke-width="1.4055"/>
<path d="M40.79 15.5562C40.368 13.9912 39.141 12.7542 37.576 12.3323C34.756 11.5732 23.4091 11.5732 23.4091 11.5732C23.4091 11.5732 12.071 11.5732 9.24097 12.3323C7.68604 12.7542 6.45801 13.9912 6.03699 15.5562C5.27795 18.4043 5.27795 24.3452 5.27795 24.3452C5.27795 24.3452 5.27795 30.2852 6.03699 33.1343C6.45801 34.6992 7.68604 35.9353 9.24097 36.3572C12.071 37.1162 23.4091 37.1162 23.4091 37.1162C23.4091 37.1162 34.756 37.1162 37.576 36.3572C39.141 35.9353 40.368 34.6992 40.79 33.1343C41.54 30.2852 41.54 24.3452 41.54 24.3452C41.54 24.3452 41.54 18.4043 40.79 15.5562ZM19.698 29.7422V18.9573L29.181 24.3452L19.698 29.7422Z" fill="white"/>
</svg>
